<?xml version="1.0" encoding="UTF-8" standalone="no"?>
<svg
   version="1.1"
   viewBox="0 0 16 16"
   id="svg12"
   sodipodi:docname="preferences-ubuntu-desktop-panel-symbolic.svg"
   inkscape:version="1.1 (c68e22c387, 2021-05-23)"
   xmlns:inkscape="http://www.inkscape.org/namespaces/inkscape"
   xmlns:sodipodi="http://sodipodi.sourceforge.net/DTD/sodipodi-0.dtd"
   xmlns="http://www.w3.org/2000/svg"
   xmlns:svg="http://www.w3.org/2000/svg">
  <defs
     id="defs16" />
  <sodipodi:namedview
     id="namedview14"
     pagecolor="#ffffff"
     bordercolor="#666666"
     borderopacity="1.0"
     inkscape:pageshadow="2"
     inkscape:pageopacity="0.0"
     inkscape:pagecheckerboard="0"
     showgrid="true"
     inkscape:zoom="11.75565"
     inkscape:cx="9.8250627"
     inkscape:cy="3.7003483"
     inkscape:window-width="1366"
     inkscape:window-height="704"
     inkscape:window-x="0"
     inkscape:window-y="27"
     inkscape:window-maximized="1"
     inkscape:current-layer="svg12">
    <inkscape:grid
       type="xygrid"
       id="grid18" />
  </sodipodi:namedview>
  <g
     transform="translate(-401,-339)"
     fill="#808080"
     id="g8">
    <path
       id="path6"
       style="font-variant-ligatures:normal;font-variant-position:normal;font-variant-caps:normal;font-variant-numeric:normal;font-variant-alternates:normal;font-feature-settings:normal;text-indent:0;text-decoration-line:none;text-decoration-style:solid;text-decoration-color:#000000;text-transform:none;text-orientation:mixed;shape-padding:0;isolation:auto;mix-blend-mode:normal"
       d="M 2.5,4 C 1.12066,4.003 0.0033,5.12066 0,6.5 v 7 C 0,14.876 1.124,16 2.5,16 h 7 C 10.876,16 12,14.876 12,13.5 V 9 h -1 v 4.5 C 11,14.34 10.34,15 9.5,15 h -7 C 1.66,15 1,14.34 1,13.5 v -7 C 1,5.66 1.66,5 2.5,5 H 7 V 4 Z"
       transform="translate(402,338)"
       sodipodi:nodetypes="ccssssccssssssccc" />
  </g>
  <path
     d="m 15.003511,1.0000495 c -0.83014,0.1951609 -1.673,0.41728 -2.529301,0.6640606 C 11.64008,1.90938 10.813411,2.1793495 9.99571,2.4746599 L 11.4098,3.8867706 7.65,7.6465714 l 0.70703,0.7070289 3.7598,-3.7597999 1.4141,1.4141011 C 13.82297,5.225131 14.096149,4.4004002 14.34929,3.5391003 14.59678,2.6835014 14.815499,1.837301 15.003589,1 Z"
     fill="#808080"
     style="font-variant-ligatures:none;font-variant-position:normal;font-variant-caps:normal;font-variant-numeric:normal;font-variant-alternates:normal;font-feature-settings:normal;text-indent:0;text-decoration-line:none;text-decoration-style:solid;text-decoration-color:#000000;text-transform:none;shape-padding:0;isolation:auto;mix-blend-mode:normal"
     id="path4" />
</svg>
