<?xml version="1.0" encoding="UTF-8" standalone="no"?>
<svg
   version="1.1"
   viewBox="0 0 16 16"
   id="svg8"
   sodipodi:docname="org.gnome.Settings-ubuntuworkspaces-symbolic.svg"
   inkscape:version="1.1 (c68e22c387, 2021-05-23)"
   xmlns:inkscape="http://www.inkscape.org/namespaces/inkscape"
   xmlns:sodipodi="http://sodipodi.sourceforge.net/DTD/sodipodi-0.dtd"
   xmlns="http://www.w3.org/2000/svg"
   xmlns:svg="http://www.w3.org/2000/svg">
  <defs
     id="defs12" />
  <sodipodi:namedview
     id="namedview10"
     pagecolor="#ffffff"
     bordercolor="#666666"
     borderopacity="1.0"
     inkscape:pageshadow="2"
     inkscape:pageopacity="0.0"
     inkscape:pagecheckerboard="0"
     showgrid="true"
     inkscape:zoom="16.625"
     inkscape:cx="12.090226"
     inkscape:cy="11.699248"
     inkscape:window-width="1366"
     inkscape:window-height="704"
     inkscape:window-x="0"
     inkscape:window-y="27"
     inkscape:window-maximized="1"
     inkscape:current-layer="svg8">
    <inkscape:grid
       type="xygrid"
       id="grid3163" />
  </sodipodi:namedview>
  <path
     style="color:#000000;solid-opacity:1;fill:#808080;stroke-width:0.799865"
     d="m 2.600858,8.000085 c -0.930089,0 -1.602985,0.08647 -2.058654,0.541989 C 0.086533,8.997592 0,9.670281 0,10.599915 V 13.40017 C 0,14.3298 0.08654,15.002491 0.542204,15.45801 0.997873,15.91353 1.670767,16 2.600858,16 h 4.8085113 c 0.93009,0 1.6029855,-0.08647 2.0586555,-0.54199 0.455669,-0.455519 0.5425942,-1.12821 0.5425942,-2.05784 v -2.800255 c 0,-0.929634 -0.08692,-1.602323 -0.5425942,-2.057841 C 9.0123528,8.086557 8.3394593,8.000085 7.4093693,8.000085 Z m 0.189559,0.9998535 h 4.4089643 c 0.870834,0 1.298446,0.1132 1.493014,0.307699 0.194566,0.194501 0.3082115,0.622004 0.3082115,1.4924245 v 2.399877 c 0,0.870415 -0.1136455,1.297921 -0.3082115,1.492423 -0.194568,0.194503 -0.622182,0.3077 -1.493014,0.3077 H 2.790417 c -0.870833,0 -1.298446,-0.113199 -1.493013,-0.3077 C 1.102838,14.497859 0.989583,14.070354 0.989583,13.199938 v -2.399876 c 0,-0.8704205 0.113257,-1.2979235 0.307821,-1.4924245 0.194565,-0.194499 0.62218,-0.307699 1.493013,-0.307699 z"
     id="rect3233"
     inkscape:connector-curvature="0"
     sodipodi:nodetypes="scssssssssssssscsssssssscs" />
  <path
     style="color:#000000;opacity:1;solid-opacity:1;fill:#808080;stroke-width:0.799865"
     d="m 8.0006245,4.599879 c 0,0.929628 -0.08692,1.602321 -0.542594,2.057839 -0.45567,0.455519 -1.128566,0.541989 -2.058655,0.541989 H 2.600858 c -0.930091,0 -1.602985,-0.08647 -2.058654,-0.541989 C 0.086535,6.202198 0,5.529507 0,4.599879 V 2.59983 C 0,1.670196 0.08653,0.997507 0.542204,0.54199 0.997873,0.086472 1.670769,0 2.600858,0 h 2.7985175 c 0.930089,0 1.602983,0.08647 2.058655,0.54199 0.455671,0.455517 0.542594,1.128206 0.542594,2.05784 z M 7.0106125,4.1999395 v -1.399878 c 0,-0.870419 -0.113645,-1.297923 -0.308211,-1.492421 -0.194568,-0.194501 -0.62218,-0.307702 -1.493014,-0.307702 H 2.800417 c -0.870833,0 -1.298448,0.113201 -1.493013,0.307702 -0.194564,0.194498 -0.307821,0.622002 -0.307821,1.492421 v 1.399878 c 0,0.870414 0.113255,1.297919 0.307821,1.492422 0.194567,0.194502 0.62218,0.307699 1.493013,0.307699 h 2.4089705 c 0.870832,0 1.298446,-0.113197 1.493014,-0.307699 0.194566,-0.194503 0.308211,-0.622008 0.308211,-1.492422 z"
     id="path3236"
     inkscape:connector-curvature="0"
     sodipodi:nodetypes="scssssscsscssssssscsscsscs" />
  <path
     style="color:#000000;solid-opacity:1;fill:#808080;stroke-width:0.799865;opacity:1"
     d="m 16.00047,4.400086 c 0,0.929628 -0.08692,1.602321 -0.542594,2.057839 -0.455669,0.455519 -1.128565,0.541989 -2.058654,0.541989 h -1.798793 c -0.930091,0 -1.602985,-0.08647 -2.058654,-0.541989 C 9.086105,6.002405 8.999571,5.329714 8.999571,4.400086 V 2.59983 c 0,-0.929634 0.08653,-1.602323 0.542204,-2.05784 C 9.997444,0.086472 10.67034,0 11.600429,0 h 1.798793 c 0.930089,0 1.602983,0.08647 2.058654,0.54199 0.455672,0.455517 0.542594,1.128206 0.542594,2.05784 z M 15.000613,4.1999395 v -1.399878 c 0,-0.870419 -0.113646,-1.297923 -0.308211,-1.492421 -0.194568,-0.194501 -0.622181,-0.307702 -1.493014,-0.307702 h -1.39897 c -0.870834,0 -1.298448,0.113201 -1.493014,0.307702 -0.194564,0.194498 -0.3078215,0.622002 -0.3078215,1.492421 v 1.399878 c 0,0.870414 0.1132545,1.297919 0.3078215,1.492422 0.194568,0.194502 0.62218,0.307699 1.493014,0.307699 h 1.39897 c 0.870831,0 1.298446,-0.113197 1.493014,-0.307699 0.194565,-0.194503 0.308211,-0.622008 0.308211,-1.492422 z"
     id="path3240"
     inkscape:connector-curvature="0"
     sodipodi:nodetypes="scssssscssssssssssssssssss" />
  <rect
     style="opacity:1;fill:#808080;fill-opacity:1;stroke-width:0.699889"
     id="rect9726"
     width="1"
     height="5"
     x="13"
     y="9"
     ry="0" />
  <rect
     style="fill:#808080;fill-opacity:1;stroke-width:0.699889"
     id="rect9726-1"
     width="1"
     height="5"
     x="11"
     y="-16"
     ry="0"
     transform="rotate(90)" />
</svg>
