<?xml version="1.0" encoding="UTF-8" standalone="no"?>
<svg
   version="1.1"
   viewBox="0 0 16 16"
   id="svg8"
   sodipodi:docname="org.gnome.Settings-ubuntuworkspaces-symbolic.svg"
   inkscape:version="1.1 (c68e22c387, 2021-05-23)"
   xmlns:inkscape="http://www.inkscape.org/namespaces/inkscape"
   xmlns:sodipodi="http://sodipodi.sourceforge.net/DTD/sodipodi-0.dtd"
   xmlns="http://www.w3.org/2000/svg"
   xmlns:svg="http://www.w3.org/2000/svg">
  <defs
     id="defs12" />
  <sodipodi:namedview
     id="namedview10"
     pagecolor="#ffffff"
     bordercolor="#666666"
     borderopacity="1.0"
     inkscape:pageshadow="2"
     inkscape:pageopacity="0.0"
     inkscape:pagecheckerboard="0"
     showgrid="false"
     inkscape:zoom="16.625"
     inkscape:cx="8"
     inkscape:cy="8.0300752"
     inkscape:window-width="1366"
     inkscape:window-height="704"
     inkscape:window-x="0"
     inkscape:window-y="27"
     inkscape:window-maximized="1"
     inkscape:current-layer="svg8" />
  <g
     transform="matrix(1,0,0,-1,-471.99586,314.99994)"
     fill="#808080"
     shape-rendering="auto"
     id="g6">
    <path
       d="m 475.99,310 c -1.2582,-0.0146 -2.1789,0.0306 -2.9316,-0.38477 -0.37637,-0.20765 -0.67322,-0.55938 -0.83789,-0.99804 -0.16467,-0.43866 -0.2246,-0.95958 -0.22461,-1.6172 l -4e-5,-3 c -10e-6,-0.65761 0.0599,-1.1785 0.22461,-1.6172 0.16467,-0.43866 0.46152,-0.79039 0.83789,-0.99804 0.75275,-0.41532 1.6734,-0.3702 2.9316,-0.38477 h 0.004 4.0039 0.004 c 1.2582,0.0146 2.1789,-0.0306 2.9316,0.38477 0.37637,0.20765 0.67322,0.55938 0.83789,0.99804 0.16449,0.43866 0.22442,0.95958 0.22443,1.6172 l 4e-5,3 c 1e-5,0.65761 -0.0599,1.1785 -0.22461,1.6172 -0.16466,0.43866 -0.46152,0.79038 -0.83789,0.99804 -0.75275,0.41534 -1.6734,0.37025 -2.9316,0.38477 h -0.004 -4.0039 z m 0.006,-1 h 0.006 3.9939 c 1.2585,-0.0147 2.0872,-0.0598 2.4531,-0.26172 0.18341,-0.1012 0.28916,-0.21274 0.38672,-0.47266 0.0976,-0.25991 0.16017,-0.67323 0.16016,-1.2656 l -4e-5,-3 c -10e-6,-0.59239 -0.0626,-1.0057 -0.16016,-1.2656 -0.0976,-0.25991 -0.20135,-0.37147 -0.38476,-0.47266 -0.36596,-0.20191 -1.1966,-0.24698 -2.4551,-0.26172 h -3.9942 -0.006 c -1.2585,0.0147 -2.0891,0.0598 -2.4551,0.26172 -0.18341,0.10119 -0.2872,0.21275 -0.38476,0.47266 -0.0976,0.2599 -0.16017,0.67323 -0.16016,1.2656 l 4e-5,3 c 1e-5,0.59239 0.0626,1.0057 0.16016,1.2656 0.0976,0.25991 0.20135,0.37147 0.38476,0.47266 0.36596,0.20191 1.1966,0.24698 2.4551,0.26172 z"
       color="#000000"
       color-rendering="auto"
       dominant-baseline="auto"
       image-rendering="auto"
       solid-color="#000000"
       style="font-variant-ligatures:normal;font-variant-position:normal;font-variant-caps:normal;font-variant-numeric:normal;font-variant-alternates:normal;font-feature-settings:normal;text-indent:0;text-decoration-line:none;text-decoration-style:solid;text-decoration-color:#000000;text-transform:none;text-orientation:mixed;white-space:normal;shape-padding:0;isolation:auto;mix-blend-mode:normal"
       id="path2" />
    <path
       d="m 485,305 v 1 h 1 v 0.004 c 0.1128,0.006 0.31164,0.004 0.39844,0.0137 0.30584,0.0352 0.40756,0.0931 0.44336,0.1289 0.0358,0.0359 0.0928,0.13321 0.125,0.43555 0.0322,0.30234 0.0332,0.76633 0.0332,1.3945 v 3.0117 c 0,0.59475 -0.0626,1.0086 -0.16016,1.2695 -0.0976,0.26095 -0.20331,0.37301 -0.38672,0.47461 -0.36593,0.20276 -1.1946,0.24887 -2.4531,0.26367 h -1.5 -3.5 c -0.95833,0 -1.497,-0.14194 -1.7227,-0.29297 -0.22564,-0.15115 -0.27734,-0.29272 -0.27734,-0.71105 v -0.99219 h -1 v 1 c 0.002,0.58328 0.20062,1.1896 0.72266,1.5391 0.52434,0.35094 1.2357,0.46094 2.2773,0.46094 h 3.5 1.502 0.004 c 1.2582,-0.0146 2.1789,0.0303 2.9316,-0.38672 0.37637,-0.20848 0.67323,-0.56155 0.83789,-1.002 0.16462,-0.44041 0.22452,-0.96283 0.22452,-1.623 v -3.0117 c 0,-0.62675 0.003,-1.101 -0.0391,-1.5 -0.0425,-0.39899 -0.13816,-0.7668 -0.41211,-1.041 -0.27396,-0.27421 -0.63779,-0.37002 -1.0371,-0.41602 -0.13567,-0.0156 -0.35509,-0.0125 -0.51168,-0.0195 z"
       color="#000000"
       color-rendering="auto"
       dominant-baseline="auto"
       image-rendering="auto"
       opacity="0.5"
       solid-color="#000000"
       style="font-variant-ligatures:normal;font-variant-position:normal;font-variant-caps:normal;font-variant-numeric:normal;font-variant-alternates:normal;font-feature-settings:normal;text-indent:0;text-decoration-line:none;text-decoration-style:solid;text-decoration-color:#000000;text-transform:none;text-orientation:mixed;white-space:normal;shape-padding:0;isolation:auto;mix-blend-mode:normal"
       id="path4" />
  </g>
</svg>
