<?xml version="1.0" encoding="UTF-8" standalone="no"?>
<svg
   width="160"
   height="94"
   viewBox="0 0 42.333 24.871"
   version="1.1"
   id="svg20"
   sodipodi:docname="horizontal-workspaces.svg"
   inkscape:version="1.1 (c68e22c387, 2021-05-23)"
   xmlns:inkscape="http://www.inkscape.org/namespaces/inkscape"
   xmlns:sodipodi="http://sodipodi.sourceforge.net/DTD/sodipodi-0.dtd"
   xmlns="http://www.w3.org/2000/svg"
   xmlns:svg="http://www.w3.org/2000/svg">
  <defs
     id="defs24">
    <linearGradient
       id="linear-gradient"
       x1="497.14001"
       y1="613.5"
       x2="497.14001"
       y2="713.96002"
       gradientTransform="matrix(0.54931477,0,0,-0.52657623,-324.78334,384.03317)"
       gradientUnits="userSpaceOnUse">
      <stop
         offset="0"
         stop-color="#350753"
         id="stop4" />
      <stop
         offset="1"
         stop-color="#720b53"
         id="stop6" />
    </linearGradient>
  </defs>
  <sodipodi:namedview
     id="namedview22"
     pagecolor="#aaccff"
     bordercolor="#666666"
     borderopacity="1.0"
     inkscape:pageshadow="2"
     inkscape:pageopacity="0"
     inkscape:pagecheckerboard="0"
     showgrid="true"
     inkscape:zoom="2.8297872"
     inkscape:cx="157.43233"
     inkscape:cy="33.041354"
     inkscape:window-width="1360"
     inkscape:window-height="704"
     inkscape:window-x="0"
     inkscape:window-y="27"
     inkscape:window-maximized="1"
     inkscape:current-layer="svg20"
     width="160px">
    <inkscape:grid
       type="xygrid"
       id="grid1223" />
  </sodipodi:namedview>
  <rect
     style="fill:#3c3c3c;fill-opacity:1;stroke-width:0.164542"
     id="rect128"
     width="42.333618"
     height="24.871"
     x="-0.00030854862"
     y="0" />
  <path
     id="path4799"
     style="fill:#808080;fill-opacity:1;stroke:#ed333b;stroke-width:0;stroke-linecap:round"
     d="m 17.039075,2.6458509 c -0.351793,0 -0.635108,0.2950124 -0.635108,0.6614628 0,0.3664502 0.283315,0.6614627 0.635108,0.6614627 h 8.254847 c 0.351793,0 0.635109,-0.2950125 0.635109,-0.6614627 0,-0.3664504 -0.283316,-0.6614628 -0.635109,-0.6614628 z M -3.0854862e-4,6.6146273 V 22.489733 H 3.4392976 c 0.7329009,0 1.3229254,-0.61023 1.3229254,-1.368401 V 7.9830282 c 0,-0.7581733 -0.5900245,-1.3684009 -1.3229254,-1.3684009 z m 9.26047854862,0 c -0.7329008,0 -1.3229259,0.6102279 -1.3229259,1.3684009 V 21.121332 c 0,0.758173 0.5900251,1.368401 1.3229259,1.368401 h 23.812658 c 0.7329,0 1.322925,-0.610228 1.322925,-1.368401 V 7.9830282 c 0,-0.758173 -0.590025,-1.3684009 -1.322925,-1.3684009 z m 29.63353,0 c -0.732902,0 -1.322926,0.6102276 -1.322926,1.3684009 V 21.121332 c 0,0.758171 0.590024,1.368401 1.322926,1.368401 h 3.439605 V 6.6146273 Z" />
  <path
     id="rect1141"
     style="fill:#131313;fill-opacity:1;stroke-width:0.129013"
     d="M -3.0854862e-4,0 V 1.3229255 24.870998 H 2.6455423 V 1.3229255 H 42.333305 V 0 H 2.6455423 Z" />
  <path
     id="rect2863-36-3"
     style="fill:#808080;fill-opacity:1;stroke-width:0.0993768"
     d="m 0.95209447,1.5875105 c -0.23452824,0 -0.42323284,0.1887046 -0.42323284,0.4232329 v 0.741045 c 0,0.2345282 0.1887046,0.4232326 0.42323284,0.4232326 H 1.6931394 c 0.2345281,0 0.4232328,-0.1887044 0.4232328,-0.4232326 v -0.741045 c 0,-0.2345283 -0.1887047,-0.4232329 -0.4232328,-0.4232329 z m 0,2.1166808 c -0.23452824,0 -0.42323284,0.1887045 -0.42323284,0.4232327 v 0.7410451 c 0,0.2345281 0.1887046,0.4232327 0.42323284,0.4232327 H 1.6931394 c 0.2345281,0 0.4232328,-0.1887046 0.4232328,-0.4232327 V 4.127424 c 0,-0.2345282 -0.1887047,-0.4232327 -0.4232328,-0.4232327 z m 0,2.1166806 c -0.23452824,0 -0.42323284,0.1887044 -0.42323284,0.4232327 v 0.7410452 c 0,0.2345282 0.1887046,0.4232327 0.42323284,0.4232327 H 1.6931394 c 0.2345281,0 0.4232328,-0.1887045 0.4232328,-0.4232327 V 6.2441046 c 0,-0.2345283 -0.1887047,-0.4232327 -0.4232328,-0.4232327 z m 0,2.1166808 c -0.23452824,0 -0.42323284,0.1887045 -0.42323284,0.4232326 v 0.7410452 c 0,0.2345291 0.1887046,0.4232322 0.42323284,0.4232322 H 1.6931394 c 0.2345281,0 0.4232328,-0.1887031 0.4232328,-0.4232322 V 8.3607853 c 0,-0.2345281 -0.1887047,-0.4232326 -0.4232328,-0.4232326 z m 0,14.5521803 c -0.23452824,0 -0.42323284,0.188704 -0.42323284,0.423232 v 0.741046 c 0,0.234528 0.1887046,0.423232 0.42323284,0.423232 H 1.6931394 c 0.2345281,0 0.4232328,-0.188704 0.4232328,-0.423232 v -0.741046 c 0,-0.234528 -0.1887047,-0.423232 -0.4232328,-0.423232 z" />
</svg>
