<?xml version="1.0" encoding="UTF-8" standalone="no"?>
<svg
   width="160"
   height="94"
   viewBox="0 0 42.333 24.871"
   version="1.1"
   id="svg20"
   sodipodi:docname="vertical-workspaces.svg"
   inkscape:version="1.1 (c68e22c387, 2021-05-23)"
   xmlns:inkscape="http://www.inkscape.org/namespaces/inkscape"
   xmlns:sodipodi="http://sodipodi.sourceforge.net/DTD/sodipodi-0.dtd"
   xmlns="http://www.w3.org/2000/svg"
   xmlns:svg="http://www.w3.org/2000/svg">
  <defs
     id="defs24">
    <linearGradient
       id="linear-gradient"
       x1="497.14001"
       y1="613.5"
       x2="497.14001"
       y2="713.96002"
       gradientTransform="matrix(0.54931477,0,0,-0.52657623,-324.78334,384.03317)"
       gradientUnits="userSpaceOnUse">
      <stop
         offset="0"
         stop-color="#350753"
         id="stop4" />
      <stop
         offset="1"
         stop-color="#720b53"
         id="stop6" />
    </linearGradient>
  </defs>
  <sodipodi:namedview
     id="namedview22"
     pagecolor="#aaccff"
     bordercolor="#666666"
     borderopacity="1.0"
     inkscape:pageshadow="2"
     inkscape:pageopacity="0"
     inkscape:pagecheckerboard="0"
     showgrid="true"
     inkscape:zoom="2.0009617"
     inkscape:cx="56.972605"
     inkscape:cy="61.720322"
     inkscape:window-width="1366"
     inkscape:window-height="704"
     inkscape:window-x="0"
     inkscape:window-y="27"
     inkscape:window-maximized="1"
     inkscape:current-layer="svg20">
    <inkscape:grid
       type="xygrid"
       id="grid1223" />
  </sodipodi:namedview>
  <rect
     style="fill:#3c3c3c;stroke-width:0.164542;fill-opacity:1"
     id="rect128"
     width="42.333618"
     height="24.871"
     x="-0.00030851064"
     y="0" />
  <path
     id="rect1141"
     style="fill:#131313;fill-opacity:1;stroke-width:0.487605"
     d="M 0 0 L 0 5 L 0 94 L 10 94 L 10 5 L 160 5 L 160 0 L 10 0 L 0 0 z "
     transform="matrix(0.26458511,0,0,0.26458511,-3.0851064e-4,0)" />
  <path
     id="rect4795"
     style="fill:#808080;fill-opacity:1;stroke:#ed333b;stroke-width:0;stroke-linecap:round;stroke-miterlimit:4;stroke-dasharray:none"
     d="M 64.400391 10 C 63.070791 10 62 11.115 62 12.5 C 62 13.885 63.070791 15 64.400391 15 L 95.599609 15 C 96.929209 15 98 13.885 98 12.5 C 98 11.115 96.929209 10 95.599609 10 L 64.400391 10 z M 133 25 C 131.338 25 130 26.338 130 28 L 130 37 C 130 38.662002 131.338 40 133 40 L 152 40 C 153.662 40 155 38.662002 155 37 L 155 28 C 155 26.338 153.662 25 152 25 L 133 25 z M 133 45 C 131.338 45 130 46.338002 130 48 L 130 57 C 130 58.662002 131.338 60 133 60 L 152 60 C 153.662 60 155 58.662002 155 57 L 155 48 C 155 46.338002 153.662 45 152 45 L 133 45 z M 133 65 C 131.338 65 130 66.337998 130 68 L 130 77 C 130 78.661998 131.338 80 133 80 L 152 80 C 153.662 80 155 78.661998 155 77 L 155 68 C 155 66.337998 153.662 65 152 65 L 133 65 z "
     transform="matrix(0.26458511,0,0,0.26458511,-3.0851064e-4,0)" />
  <path
     id="rect2863-36"
     style="fill:#808080;fill-opacity:1;stroke-width:0.375598"
     d="M 3.5996094 6 C 2.7132095 6 2 6.7132095 2 7.5996094 L 2 10.400391 C 2 11.286791 2.7132095 12 3.5996094 12 L 6.4003906 12 C 7.2867905 12 8 11.286791 8 10.400391 L 8 7.5996094 C 8 6.7132095 7.2867905 6 6.4003906 6 L 3.5996094 6 z M 3.5996094 14 C 2.7132095 14 2 14.713209 2 15.599609 L 2 18.400391 C 2 19.286791 2.7132095 20 3.5996094 20 L 6.4003906 20 C 7.2867905 20 8 19.286791 8 18.400391 L 8 15.599609 C 8 14.713209 7.2867905 14 6.4003906 14 L 3.5996094 14 z M 3.5996094 22 C 2.7132095 22 2 22.713209 2 23.599609 L 2 26.400391 C 2 27.286791 2.7132095 28 3.5996094 28 L 6.4003906 28 C 7.2867905 28 8 27.286791 8 26.400391 L 8 23.599609 C 8 22.713209 7.2867905 22 6.4003906 22 L 3.5996094 22 z M 3.5996094 30 C 2.7132095 30 2 30.713209 2 31.599609 L 2 34.400391 C 2 35.286791 2.7132095 36 3.5996094 36 L 6.4003906 36 C 7.2867905 36 8 35.286791 8 34.400391 L 8 31.599609 C 8 30.713209 7.2867905 30 6.4003906 30 L 3.5996094 30 z M 3.5996094 85 C 2.7132095 85 2 85.713209 2 86.599609 L 2 89.400391 C 2 90.286791 2.7132095 91 3.5996094 91 L 6.4003906 91 C 7.2867905 91 8 90.286791 8 89.400391 L 8 86.599609 C 8 85.713209 7.2867905 85 6.4003906 85 L 3.5996094 85 z "
     transform="matrix(0.26458511,0,0,0.26458511,-3.0851064e-4,0)" />
</svg>
