<svg width="160" height="94" version="1.1" viewBox="0 0 42.333 24.871" xmlns="http://www.w3.org/2000/svg">
 <g fill="#f37e40">
  <path d="m-3.0851e-4 0v24.872h42.335v-24.872h-39.689zm0.52917 1.5875h41.276v22.754h-41.276v-6.6146h1.5875c0.29316 0 0.52917-0.23601 0.52917-0.52917v-10.054c0-0.29316-0.23601-0.52917-0.52917-0.52917h-1.5875zm0.42323 5.5563h0.74104c0.23454 0 0.42323 0.1887 0.42323 0.42323v0.74105c0 0.23454-0.1887 0.42323-0.42323 0.42323h-0.74104c-0.23454 0-0.42323-0.1887-0.42323-0.42323v-0.74105c0-0.23454 0.1887-0.42323 0.42323-0.42323zm0 2.1167h0.74104c0.23454 0 0.42323 0.1887 0.42323 0.42323v0.74104c0 0.23454-0.1887 0.42323-0.42323 0.42323h-0.74104c-0.23454 0-0.42323-0.1887-0.42323-0.42323v-0.74104c0-0.23454 0.1887-0.42323 0.42323-0.42323zm0 2.1167h0.74104c0.23454 0 0.42323 0.1887 0.42323 0.42323v0.74104c0 0.23454-0.1887 0.42323-0.42323 0.42323h-0.74104c-0.23454 0-0.42323-0.1887-0.42323-0.42323v-0.74104c0-0.23453 0.1887-0.42323 0.42323-0.42323zm0 2.1167h0.74104c0.23454 0 0.42323 0.1887 0.42323 0.42323v0.74104c0 0.23454-0.1887 0.42323-0.42323 0.42323h-0.74104c-0.23454 0-0.42323-0.1887-0.42323-0.42323v-0.74104c0-0.23453 0.1887-0.42323 0.42323-0.42323zm0 2.1167h0.74104c0.23453 0 0.42323 0.1887 0.42323 0.42323v0.74104c0 0.23454-0.1887 0.42323-0.42323 0.42323h-0.74104c-0.23453 0-0.42323-0.1887-0.42323-0.42323v-0.74104c0-0.23453 0.1887-0.42323 0.42323-0.42323z" stroke-width=".26459"/>
  <path d="m0.52886 1.5875v5.9795c0-0.23454 0.1887-0.42323 0.42323-0.42323h0.74104c0.23454 0 0.42323 0.1887 0.42323 0.42323v0.74104c0 0.23454-0.1887 0.42323-0.42323 0.42323h-0.74104c-0.23454 0-0.42323-0.1887-0.42323-0.42323v1.3756c0-0.23454 0.1887-0.42323 0.42323-0.42323h0.74104c0.23454 0 0.42323 0.1887 0.42323 0.42323v0.74104c0 0.23454-0.1887 0.42323-0.42323 0.42323h-0.74104c-0.23454 0-0.42323-0.1887-0.42323-0.42323v1.3756c0-0.23453 0.1887-0.42323 0.42323-0.42323h0.74104c0.23454 0 0.42323 0.1887 0.42323 0.42323v0.74104c0 0.23453-0.1887 0.42323-0.42323 0.42323h-0.74104c-0.23454 0-0.42323-0.1887-0.42323-0.42323v1.3756c0-0.23453 0.1887-0.42323 0.42323-0.42323h0.74104c0.23454 0 0.42323 0.1887 0.42323 0.42323v0.74105c0 0.23454-0.1887 0.42323-0.42323 0.42323h-0.74104c-0.23454 0-0.42323-0.1887-0.42323-0.42323v1.3756c0-0.23453 0.1887-0.42323 0.42323-0.42323h0.74104c0.23454 0 0.42323 0.1887 0.42323 0.42323v0.74104c0 0.23454-0.1887 0.42323-0.42323 0.42323h-0.74104c-0.23454 0-0.42323-0.1887-0.42323-0.42323v7.567h41.275v-22.754zm33.213 2.1167h6.6146c0.37041 0 0.6687 0.29501 0.6687 0.66146v3.9688c0 0.36645-0.29829 0.66146-0.6687 0.66146h-6.6146c-0.37041 0-0.6687-0.29501-0.6687-0.66146v-3.9688c0-0.36645 0.29829-0.66146 0.6687-0.66146zm0.154 6.8792h6.3356c0.30107 0 0.54364 0.23601 0.54364 0.52917v3.7042c0 0.29316-0.24257 0.52917-0.54364 0.52917h-6.3356c-0.30113 0-0.54364-0.23601-0.54364-0.52917v-3.7042c0-0.29316 0.24251-0.52917 0.54364-0.52917zm0 6.6146h6.3356c0.30107 0 0.54364 0.23601 0.54364 0.52917v3.7042c0 0.29316-0.24257 0.52917-0.54364 0.52917h-6.3356c-0.30108 0-0.54364-0.23601-0.54364-0.52917v-3.7042c0-0.29316 0.24256-0.52917 0.54364-0.52917z" opacity=".28" stroke-width=".37419"/>
  <path d="m33.742 3.7042c-0.37041 0-0.6687 0.29501-0.6687 0.66146v3.9688c0 0.36645 0.29829 0.66146 0.6687 0.66146h6.6146c0.37041 0 0.6687-0.29501 0.6687-0.66146v-3.9688c0-0.36645-0.29829-0.66146-0.6687-0.66146zm0.154 0.26458h6.3356c0.30107 0 0.54364 0.23601 0.54364 0.52917v3.7042c0 0.29316-0.24257 0.52917-0.54364 0.52917h-6.3356c-0.30108 0-0.54364-0.23601-0.54364-0.52917v-3.7042c0-0.29316 0.24256-0.52917 0.54364-0.52917z" stroke-width="0"/>
 </g>
</svg>
