<?xml version="1.0" encoding="UTF-8" standalone="no"?>
<svg
   xmlns:dc="http://purl.org/dc/elements/1.1/"
   xmlns:cc="http://creativecommons.org/ns#"
   xmlns:rdf="http://www.w3.org/1999/02/22-rdf-syntax-ns#"
   xmlns:svg="http://www.w3.org/2000/svg"
   xmlns="http://www.w3.org/2000/svg"
   xmlns:sodipodi="http://sodipodi.sourceforge.net/DTD/sodipodi-0.dtd"
   xmlns:inkscape="http://www.inkscape.org/namespaces/inkscape"
   width="160"
   height="94"
   viewBox="0 0 42.333 24.871"
   version="1.1"
   id="svg20"
   sodipodi:docname="panel-mode.svg"
   inkscape:version="0.92.5 (2060ec1f9f, 2020-04-08)">
  <metadata
     id="metadata18">
    <rdf:RDF>
      <cc:Work
         rdf:about="">
        <dc:format>image/svg+xml</dc:format>
        <dc:type
           rdf:resource="http://purl.org/dc/dcmitype/StillImage" />
        <dc:title />
      </cc:Work>
    </rdf:RDF>
  </metadata>
  <defs
     id="defs24" />
  <sodipodi:namedview
     id="namedview22"
     pagecolor="#ffffff"
     bordercolor="#666666"
     borderopacity="1.0"
     inkscape:pageshadow="2"
     inkscape:pageopacity="0.0"
     inkscape:pagecheckerboard="0"
     showgrid="true"
     showguides="false"
     inkscape:zoom="2.5000001"
     inkscape:cx="29.600012"
     inkscape:cy="85.997355"
     inkscape:window-width="1366"
     inkscape:window-height="704"
     inkscape:window-x="0"
     inkscape:window-y="27"
     inkscape:window-maximized="1"
     inkscape:current-layer="svg20">
    <inkscape:grid
       type="xygrid"
       id="grid144" />
  </sodipodi:namedview>
  <rect
     style="fill:#924d8b;fill-opacity:1;stroke:none;stroke-width:0.28680301;stroke-opacity:1"
     id="rect4752"
     width="42.333618"
     height="24.871"
     x="-0.00030851064"
     y="-2.8991698e-07"
     ry="0" />
  <rect
     style="fill:#ffffff;fill-opacity:1;stroke:none;stroke-width:0.39837196;stroke-opacity:1"
     id="rect5232"
     width="39.158596"
     height="22.754316"
     x="2.6455426"
     y="1.5875089" />
  <rect
     style="opacity:0.28699999;fill:#924d8b;fill-opacity:1;stroke:none;stroke-width:0.39837196;stroke-opacity:1"
     id="rect5232-3"
     width="39.158596"
     height="22.754316"
     x="2.6455426"
     y="1.5875089" />
  <rect
     style="fill:#924d8b;fill-opacity:1;stroke:none;stroke-width:0.26318899;stroke-opacity:1"
     id="rect5358"
     width="2.6458511"
     height="24.871"
     x="-0.00030851064"
     y="-2.8991698e-07" />
  <path
     inkscape:connector-curvature="0"
     id="rect2863-36-3"
     style="fill:#ffffff;fill-opacity:1;stroke-width:0.0993768"
     d="m 0.9520942,1.5875106 c -0.234528,0 -0.423233,0.188705 -0.423233,0.423233 v 0.741045 c 0,0.234529 0.188705,0.4232329 0.423233,0.4232329 h 0.741045 c 0.234528,0 0.423233,-0.1887039 0.423233,-0.4232329 v -0.741045 c 0,-0.234528 -0.188705,-0.423233 -0.423233,-0.423233 z m 0,2.1166809 c -0.234528,0 -0.423233,0.188705 -0.423233,0.423233 v 0.7410452 c 0,0.2345279 0.188705,0.423233 0.423233,0.423233 h 0.741045 c 0.234528,0 0.423233,-0.1887051 0.423233,-0.423233 V 4.1274245 c 0,-0.234528 -0.188705,-0.423233 -0.423233,-0.423233 z m 0,2.1166811 c -0.234528,0 -0.423233,0.188704 -0.423233,0.423233 v 0.7410447 c 0,0.2345282 0.188705,0.4232327 0.423233,0.4232327 h 0.741045 c 0.234528,0 0.423233,-0.1887045 0.423233,-0.4232327 V 6.2441056 c 0,-0.234529 -0.188705,-0.423233 -0.423233,-0.423233 z m 0,2.1166806 c -0.234528,0 -0.423233,0.1887045 -0.423233,0.4232327 v 0.7410452 c 0,0.234529 0.188705,0.4232322 0.423233,0.4232322 h 0.741045 c 0.234528,0 0.423233,-0.1887032 0.423233,-0.4232322 V 8.3607859 c 0,-0.2345282 -0.188705,-0.4232327 -0.423233,-0.4232327 z m 0,14.0230108 c -0.234528,0 -0.423233,0.188704 -0.423233,0.423232 v 0.741046 c 0,0.234528 0.188705,0.423232 0.423233,0.423232 h 0.741045 c 0.234528,0 0.423233,-0.188704 0.423233,-0.423232 v -0.741046 c 0,-0.234528 -0.188705,-0.423232 -0.423233,-0.423232 z"
     sodipodi:nodetypes="sssssssssssssssssssssssssssssssssssssssssssss" />
  <rect
     style="opacity:1;fill:#ffffff;fill-opacity:1;stroke:#ed333b;stroke-width:0;stroke-linecap:round;stroke-miterlimit:4;stroke-dasharray:none"
     id="rect3775"
     width="7.9518409"
     height="5.2917018"
     x="33.07283"
     y="3.7041919"
     rx="0.66860515"
     ry="0.66146213" />
  <path
     style="opacity:1;fill:#924d8b;fill-opacity:1;stroke:#ed333b;stroke-width:0;stroke-linecap:round;stroke-miterlimit:4;stroke-dasharray:none"
     d="m 33.741526,3.704191 c -0.370406,0 -0.668696,0.2950124 -0.668696,0.6614627 v 3.9687766 c 0,0.3664501 0.29829,0.6614628 0.668696,0.6614628 h 6.614631 c 0.370406,0 0.668696,-0.2950127 0.668696,-0.6614628 V 4.3656537 c 0,-0.3664503 -0.29829,-0.6614627 -0.668696,-0.6614627 z m 0.153999,0.2645851 h 6.335573 c 0.301074,0 0.54364,0.2360099 0.54364,0.5291702 v 3.7041912 c 0,0.2931606 -0.242566,0.5291705 -0.54364,0.5291705 h -6.335573 c -0.301076,0 -0.54364,-0.2360099 -0.54364,-0.5291705 V 4.4979463 c 0,-0.2931603 0.242564,-0.5291702 0.54364,-0.5291702 z"
     id="rect3775-3"
     inkscape:connector-curvature="0" />
  <path
     inkscape:connector-curvature="0"
     style="opacity:1;fill:#ffffff;fill-opacity:1;stroke:#ed333b;stroke-width:0;stroke-linecap:round;stroke-miterlimit:4;stroke-dasharray:none"
     d="m 33.895525,17.198032 c -0.301076,0 -0.54364,0.23601 -0.54364,0.52917 v 3.704192 c 0,0.29316 0.242564,0.52917 0.54364,0.52917 h 6.335573 c 0.301074,0 0.54364,-0.23601 0.54364,-0.52917 v -3.704192 c 0,-0.29316 -0.242566,-0.52917 -0.54364,-0.52917 z"
     id="rect3775-7-5" />
  <path
     inkscape:connector-curvature="0"
     id="rect3775-7"
     style="opacity:1;fill:#ffffff;fill-opacity:1;stroke:#ed333b;stroke-width:0;stroke-linecap:round;stroke-miterlimit:4;stroke-dasharray:none"
     d="m 33.895525,10.583404 c -0.301124,0 -0.54364,0.23601 -0.54364,0.52917 v 3.704192 c 0,0.293161 0.242516,0.52917 0.54364,0.52917 h 6.335573 c 0.301074,0 0.54364,-0.236009 0.54364,-0.52917 v -3.704192 c 0,-0.29316 -0.242566,-0.52917 -0.54364,-0.52917 z" />
</svg>
