<svg width="160" height="94" version="1.1" viewBox="0 0 42.333 24.871" xmlns="http://www.w3.org/2000/svg">
 <g fill="#f37e40">
  <path d="m-3.0851e-4 0v24.872h42.334v-24.872h-39.688zm0.95242 1.5875h0.74106c0.23454 0 0.42324 0.18871 0.42324 0.42324v0.74106c0 0.23454-0.18871 0.42324-0.42324 0.42324h-0.74106c-0.23454 0-0.42324-0.18871-0.42324-0.42324v-0.74106c0-0.23454 0.18871-0.42324 0.42324-0.42324zm1.6935 0h39.159v22.754h-39.159zm-1.6935 2.1167h0.74106c0.23454 0 0.42324 0.18871 0.42324 0.42324v0.74106c0 0.23454-0.18871 0.42324-0.42324 0.42324h-0.74106c-0.23454 0-0.42324-0.1887-0.42324-0.42324v-0.74106c0-0.23454 0.18871-0.42324 0.42324-0.42324zm0 2.1167h0.74106c0.23454 0 0.42324 0.18871 0.42324 0.42324v0.74106c0 0.23454-0.18871 0.42324-0.42324 0.42324h-0.74106c-0.23454 0-0.42324-0.1887-0.42324-0.42324v-0.74106c0-0.23454 0.18871-0.42324 0.42324-0.42324zm0 2.1167h0.74106c0.23454 0 0.42324 0.18871 0.42324 0.42324v0.74106c0 0.23454-0.18871 0.42324-0.42324 0.42324h-0.74106c-0.23454 0-0.42324-0.18871-0.42324-0.42324v-0.74106c0-0.23454 0.18871-0.42324 0.42324-0.42324zm0 14.023h0.74106c0.23454 0 0.42324 0.1887 0.42324 0.42324v0.74106c0 0.23454-0.18871 0.42324-0.42324 0.42324h-0.74106c-0.23454 0-0.42324-0.18871-0.42324-0.42324v-0.74106c0-0.23454 0.18871-0.42324 0.42324-0.42324z" stroke-width=".26459"/>
  <path d="m2.6455 1.5875v22.754h39.159v-22.754zm31.096 2.1167h6.6146c0.37041 0 0.6687 0.29501 0.6687 0.66146v3.9688c0 0.36645-0.29829 0.66146-0.6687 0.66146h-6.6146c-0.37041 0-0.6687-0.29501-0.6687-0.66146v-3.9688c0-0.36645 0.29829-0.66146 0.6687-0.66146zm0.154 6.8792h6.3356c0.30107 0 0.54364 0.23601 0.54364 0.52917v3.7042c0 0.29316-0.24257 0.52917-0.54364 0.52917h-6.3356c-0.30113 0-0.54364-0.23601-0.54364-0.52917v-3.7042c0-0.29316 0.24251-0.52917 0.54364-0.52917zm0 6.6146h6.3356c0.30107 0 0.54364 0.23601 0.54364 0.52917v3.7042c0 0.29316-0.24257 0.52917-0.54364 0.52917h-6.3356c-0.30108 0-0.54364-0.23601-0.54364-0.52917v-3.7042c0-0.29316 0.24256-0.52917 0.54364-0.52917z" opacity=".28" stroke-width=".37419"/>
  <path d="m33.742 3.7042c-0.37041 0-0.6687 0.29501-0.6687 0.66146v3.9688c0 0.36645 0.29829 0.66146 0.6687 0.66146h6.6146c0.37041 0 0.6687-0.29501 0.6687-0.66146v-3.9688c0-0.36645-0.29829-0.66146-0.6687-0.66146zm0.154 0.26459h6.3356c0.30107 0 0.54364 0.23601 0.54364 0.52917v3.7042c0 0.29316-0.24257 0.52917-0.54364 0.52917h-6.3356c-0.30108 0-0.54364-0.23601-0.54364-0.52917v-3.7042c0-0.29316 0.24256-0.52917 0.54364-0.52917z" stroke-width="0"/>
 </g>
</svg>
