<?xml version="1.0" encoding="UTF-8" standalone="no"?>
<svg
   version="1.1"
   viewBox="0 0 16 16"
   id="svg12"
   sodipodi:docname="preferences-ubuntu-personalization-panel-symbolic.svg"
   inkscape:version="1.1 (c68e22c387, 2021-05-23)"
   width="16"
   height="16"
   xmlns:inkscape="http://www.inkscape.org/namespaces/inkscape"
   xmlns:sodipodi="http://sodipodi.sourceforge.net/DTD/sodipodi-0.dtd"
   xmlns="http://www.w3.org/2000/svg"
   xmlns:svg="http://www.w3.org/2000/svg">
  <defs
     id="defs16" />
  <sodipodi:namedview
     id="namedview14"
     pagecolor="#ffffff"
     bordercolor="#666666"
     borderopacity="1.0"
     inkscape:pageshadow="2"
     inkscape:pageopacity="0.0"
     inkscape:pagecheckerboard="0"
     showgrid="true"
     inkscape:zoom="11.313709"
     inkscape:cx="3.2703687"
     inkscape:cy="6.938485"
     inkscape:window-width="1366"
     inkscape:window-height="704"
     inkscape:window-x="0"
     inkscape:window-y="27"
     inkscape:window-maximized="1"
     inkscape:current-layer="svg12"
     width="16px">
    <inkscape:grid
       type="xygrid"
       id="grid18" />
  </sodipodi:namedview>
  <path
     style="color:#000000;display:inline;overflow:visible;visibility:visible;fill:#808080;fill-opacity:1;fill-rule:nonzero;stroke:none;stroke-width:2;marker:none;enable-background:accumulate"
     d="m 180.73242,39.012839 c -2.46846,-0.163757 -5.1741,1.226836 -8.8164,4.869141 l -0.98633,0.984375 c -0.009,-0.009 -0.0164,-0.01834 -0.0254,-0.02734 l -0.0527,-0.05274 c -1.39505,-1.395059 -2.73009,-2.308777 -3.98048,-2.791016 l -0.01,-0.0039 -0.01,-0.0039 c -0.94178,-0.385898 -1.84003,-0.567498 -2.71679,-0.5625 -0.29092,0.0018 -0.58178,0.02438 -0.87305,0.06836 l -0.0156,0.0039 -0.0175,0.002 c -1.17397,0.136426 -2.35894,0.582524 -3.57227,1.375 l -0.01,0.0059 -0.0117,0.0078 c -1.24135,0.767236 -2.48044,1.767553 -3.7207,3.007812 l -2.8125,2.8125 c -1.24074,1.240739 -2.24337,2.479823 -3.00976,3.720704 l -0.008,0.01172 -0.006,0.0098 c -0.79209,1.21274 -1.23651,2.397329 -1.37305,3.572266 l -0.002,0.01758 -0.004,0.01563 c -0.1752,1.159601 -0.0203,2.33446 0.49414,3.589843 l 0.004,0.0098 0.004,0.0098 c 0.48236,1.250665 1.39629,2.587692 2.79101,3.982422 0.0848,0.0848 0.21243,0.187037 0.38672,0.361328 l 0.70703,0.707033 -0.0137,0.01367 20.88086,20.880775 -6.00195,6.001953 -1.61317,-1.613388 c -3.36925,2.197857 -6.64052,4.493579 -9.81445,6.886719 -3.21494,2.43403 -6.54195,5.370064 -9.98047,8.808594 L 135,117.23745 l 9.76172,9.76172 11.54297,-11.54297 c 3.43852,-3.43852 6.37457,-6.76554 8.80859,-9.98047 2.39309,-3.174 4.6888,-6.445253 6.88672,-9.814454 l -1.61328,-1.613281 5.58789,-5.58789 h 0.002 l 2.84961,-2.851563 -3.14258,-3.142578 -21.60547,-21.865235 c -0.51342,-0.586128 -1.07106,-1.139603 -1.33594,-1.861328 -0.30135,-0.821655 -0.45059,-1.749218 -0.21484,-2.710937 0.17988,-0.916228 0.62434,-1.812703 1.2832,-2.720703 0.61521,-0.912719 1.44088,-1.878368 2.48438,-2.921875 l 1.23437,-1.234375 c 1.04306,-1.043068 2.00666,-1.867086 2.91797,-2.482422 0.90961,-0.660679 1.80712,-1.105168 2.72461,-1.285156 0.92061,-0.226791 1.87808,-0.140329 2.7461,0.238281 0.86002,0.32888 1.66891,0.891582 2.44335,1.666015 0.0222,0.02224 0.046,0.05493 0.0684,0.07813 l -1.04101,1.041015 c -8.32526,8.325256 -4.88713,11.763262 1.98828,18.638672 l 25.57617,25.576172 c 6.87541,6.8754 10.3134,10.313552 18.63867,1.988281 l 4.52539,-4.527344 c 8.32526,-8.325266 4.88712,-11.763271 -1.98828,-18.638672 L 190.55273,45.870261 c -3.86741,-3.867413 -6.64657,-6.646876 -9.82031,-6.857422 z m -0.63476,3.957031 c 0.26112,-0.03232 0.46712,0.008 0.72851,0.07227 1.04559,0.257108 3.47237,2.204788 6.91016,5.642578 l 25.57617,25.576168 c 2.14865,2.14865 3.8391,3.887397 4.74805,5.173828 0.90894,1.286431 1.01602,1.803144 0.9414,2.449219 -0.0895,0.775273 -0.87002,2.553615 -3.70117,5.384765 l -4.52734,4.527344 c -1.88748,1.887473 -3.36377,2.929055 -4.31446,3.369141 -0.9507,0.440086 -1.25846,0.413705 -1.78125,0.285156 -1.04558,-0.257118 -3.47236,-2.206742 -6.91015,-5.644531 L 172.19336,64.229636 c -3.43781,-3.43781 -5.38527,-5.861508 -5.64258,-6.908203 -0.12865,-0.523343 -0.15721,-0.832039 0.2832,-1.783204 0.4404,-0.951163 1.48355,-2.426909 3.3711,-4.314453 a 3.9834012,3.981826 0 0 0 0.002,-0.002 l 4.52344,-4.52539 c 1.88747,-1.887474 3.36376,-2.929055 4.31445,-3.369141 0.47534,-0.220038 0.79161,-0.325102 1.05273,-0.357422 z m 22.88867,62.49024 c -3.2387,6.30685 -5.47072,13.33834 -5.62305,13.82226 -0.0216,0.0568 -0.0387,0.11625 -0.0586,0.17383 -0.19512,0.56686 -0.30469,1.17115 -0.30469,1.80078 0,3.17038 2.67853,5.74116 5.98047,5.74219 3.30193,-0.001 5.97851,-2.56985 5.97851,-5.74024 0,-0.62923 -0.10596,-1.23425 -0.30078,-1.80078 h 0.002 c 0,0 -2.19979,-7.10009 -5.66015,-13.98828 -0.001,0 -0.003,-0.001 -0.004,-0.002 l -0.004,-0.004 c -0.001,-0.002 -9.6e-4,-0.003 -0.002,-0.004 -0.001,-5.2e-4 -0.003,0 -0.004,0 z"
     id="rect4448-3" />
  <path
     id="path1220"
     style="display:inline;fill:#808080;fill-opacity:1;stroke-width:0.60382"
     inkscape:label="scalable"
     d="M 3 0 C 1.892 0 1 0.892 1 2 L 1 3 C 1 4.108 1.892 5 3 5 L 11 5 C 12.108 5 13 4.108 13 3 L 14 3 L 14 6 C 12 6 9.9402345 5.9921875 8.078125 5.9921875 C 7.4635119 5.9921875 7 6.3712002 7 6.8730469 L 7 7 L 7 8 L 7 8.0019531 C 6.4167796 8.2072475 6 8.7589003 6 9.4140625 L 6 13 L 6 14.414062 L 6 16 L 9 16 L 9 14.414062 L 9 13 L 9 9.4140625 C 9 8.7589003 8.5832204 8.2072475 8 8.0019531 L 8 8 L 8 7 L 14 7 C 14 7 15 6.9992239 15 6.0253906 L 15 2.984375 C 15 2.0006813 14.000391 1.9999804 13.810547 2 L 13 2 C 13 0.892 12.108 0 11 0 L 3 0 z M 3 1 L 11 1 C 11.554 1 12 1.446 12 2 L 12 3 C 12 3.554 11.554 4 11 4 L 3 4 C 2.446 4 2 3.554 2 3 L 2 2 C 2 1.446 2.446 1 3 1 z " />
</svg>
