<?xml version="1.0" encoding="UTF-8" standalone="no"?>
<svg
   height="16"
   id="svg7384"
   version="1.1"
   width="16"
   sodipodi:docname="font-size-small-symbolic.svg"
   inkscape:version="1.1.1 (3bf5ae0d25, 2021-09-20)"
   xmlns:inkscape="http://www.inkscape.org/namespaces/inkscape"
   xmlns:sodipodi="http://sodipodi.sourceforge.net/DTD/sodipodi-0.dtd"
   xmlns="http://www.w3.org/2000/svg"
   xmlns:svg="http://www.w3.org/2000/svg"
   xmlns:rdf="http://www.w3.org/1999/02/22-rdf-syntax-ns#"
   xmlns:cc="http://creativecommons.org/ns#"
   xmlns:dc="http://purl.org/dc/elements/1.1/">
  <sodipodi:namedview
     pagecolor="#ffffff"
     bordercolor="#666666"
     borderopacity="1"
     objecttolerance="10"
     gridtolerance="10"
     guidetolerance="10"
     inkscape:pageopacity="0"
     inkscape:pageshadow="2"
     inkscape:window-width="1366"
     inkscape:window-height="704"
     id="namedview22"
     showgrid="true"
     inkscape:zoom="19.445436"
     inkscape:cx="11.210857"
     inkscape:cy="5.3225857"
     inkscape:window-x="0"
     inkscape:window-y="27"
     inkscape:window-maximized="1"
     inkscape:current-layer="svg7384"
     inkscape:pagecheckerboard="0">
    <inkscape:grid
       type="xygrid"
       id="grid838" />
  </sodipodi:namedview>
  <metadata
     id="metadata20854">
    <rdf:RDF>
      <cc:Work
         rdf:about="">
        <dc:format>image/svg+xml</dc:format>
        <dc:type
           rdf:resource="http://purl.org/dc/dcmitype/StillImage" />
      </cc:Work>
    </rdf:RDF>
  </metadata>
  <defs
     id="defs7386">
    <linearGradient
       id="linearGradient5606"
       inkscape:swatch="solid">
      <stop
         id="stop5608"
         offset="0"
         style="stop-color:#000000;stop-opacity:1;" />
    </linearGradient>
    <linearGradient
       id="linearGradient4526"
       inkscape:swatch="solid">
      <stop
         id="stop4528"
         offset="0"
         style="stop-color:#ffffff;stop-opacity:1;" />
    </linearGradient>
    <linearGradient
       id="linearGradient3600-4"
       inkscape:swatch="gradient">
      <stop
         id="stop3602-7"
         offset="0"
         style="stop-color:#f4f4f4;stop-opacity:1" />
      <stop
         id="stop3604-6"
         offset="1"
         style="stop-color:#dbdbdb;stop-opacity:1" />
    </linearGradient>
  </defs>
  <g
     id="layer9"
     label="status"
     style="display:inline"
     transform="translate(-413.0002,-93)" />
  <g
     id="layer2"
     style="display:inline"
     transform="translate(-172,-460)" />
  <g
     id="layer4"
     style="display:inline"
     transform="translate(-172,-460)" />
  <g
     id="g1812"
     style="display:inline"
     transform="translate(-172,-460)" />
  <g
     id="g6217"
     style="display:inline"
     transform="translate(-172,-460)" />
  <g
     id="layer3"
     style="display:inline"
     transform="translate(-172,-460)" />
  <g
     id="g1833"
     style="display:inline"
     transform="translate(-172,-460)" />
  <g
     id="layer1"
     style="display:inline"
     transform="matrix(1.0270807,0,0,1,-174.86048,-460)">
    <path
       d="m 177,464 c -0.40445,0.85426 -0.79836,1.72031 -1.17969,2.59766 -0.38133,0.87734 -0.76922,1.79983 -1.16211,2.76953 -0.38133,0.9697 -0.77328,1.99885 -1.17773,3.08398 -0.40445,1.08514 -0.83254,2.26744 -1.28321,3.54883 h 2.27149 c 0.16178,-0.46176 0.3226,-0.92301 0.48437,-1.38477 0.17333,-0.4733 0.42416,-1.13038 0.58594,-1.61523 h 4.90039 c 0.16178,0.48485 0.40675,1.1359 0.58008,1.59766 0.17333,0.46176 0.34213,0.92904 0.50391,1.40234 h 2.35742 c -0.45067,-1.28139 -0.88478,-2.46369 -1.30078,-3.54883 -0.40445,-1.08513 -0.80243,-2.11428 -1.19532,-3.08398 -0.38133,-0.9697 -0.7632,-1.89219 -1.14453,-2.76953 -0.38133,-0.87735 -0.77328,-1.7434 -1.17773,-2.59766 z m 1.03906,2.32031 c 0.25422,0.58874 0.55372,1.32791 0.90039,2.2168 0.29698,0.76146 0.60763,1.59964 0.92188,2.46289 h -3.64649 c 0.31245,-0.86082 0.61946,-1.69447 0.90625,-2.44531 0.34667,-0.87736 0.65219,-1.62255 0.91797,-2.23438 z"
       id="path3011"
       style="font-style:normal;font-variant:normal;font-weight:500;font-stretch:normal;font-size:17.3333px;line-height:1.25;font-family:Ubuntu;-inkscape-font-specification:'Ubuntu, Medium';font-variant-ligatures:normal;font-variant-caps:normal;font-variant-numeric:normal;font-feature-settings:normal;text-align:start;letter-spacing:0px;word-spacing:0px;writing-mode:lr-tb;text-anchor:start;opacity:1;fill:#808080;fill-opacity:1;stroke:none;stroke-width:0.9995" />
  </g>
</svg>
