<?xml version="1.0" encoding="UTF-8" standalone="no"?>
<svg
   version="1.1"
   viewBox="0 0 16 16"
   id="svg12"
   sodipodi:docname="preferences-ubuntu-appearance-panel-symbolic.svg"
   inkscape:version="1.1 (c68e22c387, 2021-05-23)"
   xmlns:inkscape="http://www.inkscape.org/namespaces/inkscape"
   xmlns:sodipodi="http://sodipodi.sourceforge.net/DTD/sodipodi-0.dtd"
   xmlns="http://www.w3.org/2000/svg"
   xmlns:svg="http://www.w3.org/2000/svg">
  <path
     id="path4"
     style="stroke-width:0.8;fill:#808080;fill-opacity:1"
     d="M 8 0 C 3.592 0 0 3.592 0 8 C 0 12.408 3.592 16 8 16 C 9.104 16 10 15.104 10 14 C 10 13.512 9.8162814 13.040062 9.4882812 12.664062 C 9.4242812 12.584064 9.3847656 12.496391 9.3847656 12.400391 C 9.3847656 12.176391 9.5592031 12 9.7832031 12 L 11.199219 12 C 13.847219 12 16 9.8472187 16 7.1992188 C 16 3.2312187 12.408 -5.9211895e-16 8 0 z M 8 1 C 11.528 1 15 4.1112188 15 7.1992188 C 15 8.9672188 12.967219 11 11.199219 11 L 9.7832031 11 C 8.6792031 11 8.3925781 11.296391 8.3925781 12.400391 C 8.3925781 12.880391 8.5684844 13.352703 8.8964844 13.720703 C 8.9444844 13.776703 9.0088125 13.872004 9.0078125 14 C 8.9998125 15 8.2005625 14.970703 7.9765625 14.970703 C 4.4485625 14.970703 1 11.528 1 8 C 1 4.472 4.472 1 8 1 z M 9.375 2.8769531 A 1.2 1.2 0 0 0 9.2050781 2.8945312 A 1.2 1.2 0 0 0 8.2324219 4.2851562 A 1.2 1.2 0 0 0 9.6230469 5.2578125 A 1.2 1.2 0 0 0 10.595703 3.8691406 A 1.2 1.2 0 0 0 9.375 2.8769531 z M 5.4375 3.5722656 A 1.2 1.2 0 0 0 5.265625 3.5898438 A 1.2 1.2 0 0 0 4.2929688 4.9804688 A 1.2 1.2 0 0 0 5.6835938 5.953125 A 1.2 1.2 0 0 0 6.65625 4.5625 A 1.2 1.2 0 0 0 5.4375 3.5722656 z M 12.294922 5.6113281 A 1.2 1.2 0 0 0 12.125 5.6289062 A 1.2 1.2 0 0 0 11.152344 7.0195312 A 1.2 1.2 0 0 0 12.541016 7.9941406 A 1.2 1.2 0 0 0 13.515625 6.6035156 A 1.2 1.2 0 0 0 12.294922 5.6113281 z M 3.6289062 7.140625 A 1.2 1.2 0 0 0 3.4589844 7.1582031 A 1.2 1.2 0 0 0 2.484375 8.5488281 A 1.2 1.2 0 0 0 3.875 9.5214844 A 1.2 1.2 0 0 0 4.8476562 8.1308594 A 1.2 1.2 0 0 0 3.6289062 7.140625 z " />
  <defs
     id="defs16">
    <linearGradient
       id="linearGradient1664-5-6-3-3"
       gradientUnits="userSpaceOnUse"
       x1="178.16689"
       x2="-13.92912"
       y1="137.53882"
       y2="128.91682">
      <stop
         offset="0"
         stop-color="#5995e8"
         id="stop23-0-1-7-0" />
      <stop
         offset="1"
         stop-color="#63a0e6"
         stop-opacity=".01"
         id="stop25-3-5-4-7" />
    </linearGradient>
  </defs>
  <sodipodi:namedview
     id="namedview14"
     pagecolor="#ffffff"
     bordercolor="#666666"
     borderopacity="1.0"
     inkscape:pageshadow="2"
     inkscape:pageopacity="0.0"
     inkscape:pagecheckerboard="0"
     showgrid="true"
     inkscape:zoom="16.625"
     inkscape:cx="16.090226"
     inkscape:cy="8.2706769"
     inkscape:window-width="1366"
     inkscape:window-height="704"
     inkscape:window-x="0"
     inkscape:window-y="27"
     inkscape:window-maximized="1"
     inkscape:current-layer="svg12">
    <inkscape:grid
       type="xygrid"
       id="grid18" />
  </sodipodi:namedview>
  <g
     id="g34"
     transform="translate(-0.27783788)" />
</svg>
