<?xml version="1.0" encoding="UTF-8" standalone="no"?>
<svg
   width="160"
   height="94"
   viewBox="0 0 42.333 24.871"
   version="1.1"
   id="svg20"
   sodipodi:docname="active-screen-edges.svg"
   inkscape:version="1.1 (c68e22c387, 2021-05-23)"
   xmlns:inkscape="http://www.inkscape.org/namespaces/inkscape"
   xmlns:sodipodi="http://sodipodi.sourceforge.net/DTD/sodipodi-0.dtd"
   xmlns="http://www.w3.org/2000/svg"
   xmlns:svg="http://www.w3.org/2000/svg">
  <defs
     id="defs24" />
  <sodipodi:namedview
     id="namedview22"
     pagecolor="#ffffff"
     bordercolor="#666666"
     borderopacity="1.0"
     inkscape:pageshadow="2"
     inkscape:pageopacity="0.0"
     inkscape:pagecheckerboard="0"
     showgrid="true"
     inkscape:zoom="2.0009617"
     inkscape:cx="59.471403"
     inkscape:cy="29.735702"
     inkscape:window-width="1366"
     inkscape:window-height="704"
     inkscape:window-x="0"
     inkscape:window-y="27"
     inkscape:window-maximized="1"
     inkscape:current-layer="svg20" />
  <path
     id="path4799"
     style="fill:#808080;fill-opacity:1;stroke:#ed333b;stroke-width:0;stroke-linecap:round"
     d="m 17.039076,2.645851 c -0.351793,0 -0.635108,0.295012 -0.635108,0.661463 0,0.36645 0.283315,0.661462 0.635108,0.661462 h 8.254847 c 0.351793,0 0.635109,-0.295012 0.635109,-0.661462 0,-0.366451 -0.283316,-0.661463 -0.635109,-0.661463 z M -3.0801064e-4,6.6146273 V 22.489733 H 3.4392981 c 0.7329009,0 1.3229254,-0.61023 1.3229254,-1.368401 V 7.9830282 c 0,-0.7581733 -0.5900245,-1.3684009 -1.3229254,-1.3684009 z m 9.26047871064,0 c -0.732901,0 -1.322926,0.6102279 -1.322926,1.3684009 V 21.121332 c 0,0.758173 0.590025,1.368401 1.322926,1.368401 H 33.072829 c 0.7329,0 1.322925,-0.610228 1.322925,-1.368401 V 7.9830282 c 0,-0.758173 -0.590025,-1.3684009 -1.322925,-1.3684009 z m 29.6335303,0 c -0.732902,0 -1.322926,0.6102276 -1.322926,1.3684009 V 21.121332 c 0,0.758171 0.590024,1.368401 1.322926,1.368401 h 3.439605 V 6.6146273 Z" />
  <path
     id="rect1141"
     style="fill:#131313;fill-opacity:1;stroke-width:0.129013"
     d="M -3.0801064e-4,0 V 1.322925 24.870998 H 2.6455428 V 1.322925 H 42.333306 V 0 H 2.6455428 Z" />
  <path
     id="rect2863-36-3"
     style="fill:#808080;fill-opacity:1;stroke-width:0.0993768"
     d="m 0.95209499,1.58751 c -0.2345283,0 -0.4232329,0.188705 -0.4232329,0.423233 v 0.741045 c 0,0.234529 0.1887046,0.423233 0.4232329,0.423233 H 1.6931399 c 0.2345281,0 0.4232328,-0.188704 0.4232328,-0.423233 V 2.010743 c 0,-0.234528 -0.1887047,-0.423233 -0.4232328,-0.423233 z m 0,2.116681 c -0.2345283,0 -0.4232329,0.188705 -0.4232329,0.423233 v 0.741045 c 0,0.234528 0.1887046,0.423233 0.4232329,0.423233 H 1.6931399 c 0.2345281,0 0.4232328,-0.188705 0.4232328,-0.423233 V 4.127424 c 0,-0.234528 -0.1887047,-0.423233 -0.4232328,-0.423233 z m 0,2.116681 c -0.2345283,0 -0.4232329,0.188704 -0.4232329,0.423233 v 0.7410448 c 0,0.2345282 0.1887046,0.4232327 0.4232329,0.4232327 H 1.6931399 c 0.2345281,0 0.4232328,-0.1887045 0.4232328,-0.4232327 V 6.244105 c 0,-0.234529 -0.1887047,-0.423233 -0.4232328,-0.423233 z m 0,2.1166807 c -0.2345283,0 -0.4232329,0.1887045 -0.4232329,0.4232326 v 0.7410452 c 0,0.2345291 0.1887046,0.4232322 0.4232329,0.4232322 H 1.6931399 c 0.2345281,0 0.4232328,-0.1887031 0.4232328,-0.4232322 V 8.3607853 c 0,-0.2345281 -0.1887047,-0.4232326 -0.4232328,-0.4232326 z m 0,14.5521803 c -0.2345283,0 -0.4232329,0.188704 -0.4232329,0.423232 v 0.741046 c 0,0.234528 0.1887046,0.423232 0.4232329,0.423232 H 1.6931399 c 0.2345281,0 0.4232328,-0.188704 0.4232328,-0.423232 v -0.741046 c 0,-0.234528 -0.1887047,-0.423232 -0.4232328,-0.423232 z" />
</svg>
