<svg width="160" height="94" version="1.1" viewBox="0 0 42.333 24.871" xmlns="http://www.w3.org/2000/svg">
 <path transform="matrix(.26459 0 0 .26459 -.00030851 0)" d="m0 0v94h160v-94h-160z" fill="#f37e40"/>
 <path d="m2.6455 1.5875h39.159v22.754h-39.159z" fill="#fff" stroke-width=".39837"/>
 <path d="m0.95209 1.5875c-0.23453 0-0.42323 0.1887-0.42323 0.42323v0.74104c0 0.23453 0.1887 0.42323 0.42323 0.42323h0.74105c0.23453 0 0.42323-0.1887 0.42323-0.42323v-0.74104c0-0.23453-0.1887-0.42323-0.42323-0.42323zm0 2.1167c-0.23453 0-0.42323 0.1887-0.42323 0.42323v0.74104c0 0.23453 0.1887 0.42323 0.42323 0.42323h0.74105c0.23453 0 0.42323-0.1887 0.42323-0.42323v-0.74104c0-0.23453-0.1887-0.42323-0.42323-0.42323zm0 2.1167c-0.23453 0-0.42323 0.1887-0.42323 0.42323v0.74104c0 0.23453 0.1887 0.42323 0.42323 0.42323h0.74105c0.23453 0 0.42323-0.1887 0.42323-0.42323v-0.74104c0-0.23453-0.1887-0.42323-0.42323-0.42323zm0 2.1167c-0.23453 0-0.42323 0.1887-0.42323 0.42323v0.74105c0 0.23453 0.1887 0.42323 0.42323 0.42323h0.74105c0.23453 0 0.42323-0.1887 0.42323-0.42323v-0.74105c0-0.23453-0.1887-0.42323-0.42323-0.42323zm0 14.023c-0.23453 0-0.42323 0.1887-0.42323 0.42323v0.74105c0 0.23453 0.1887 0.42323 0.42323 0.42323h0.74105c0.23453 0 0.42323-0.1887 0.42323-0.42323v-0.74105c0-0.23453-0.1887-0.42323-0.42323-0.42323z" fill="#fff" stroke-width=".099377"/>
 <path d="m2.6455 1.5875h19.579v22.754h-19.579z" fill="#f37e40" opacity=".287" stroke-width="1.2186"/>
 <g transform="matrix(.26458 0 0 .26458 -396.08 1156.8)">
  <path d="m1523-4353h70c1.662 0 3 1.338 3 3v52c0 1.662-1.338 3-3 3h-70c-1.662 0-3-1.338-3-3v-52c0-1.662 1.338-3 3-3z" color="#000000" fill="#fff" stroke-width="2" style="-inkscape-stroke:none"/>
  <path d="m1523-4354c-2.1987 0-4 1.8013-4 4v52c0 2.1987 1.8013 4 4 4h70c2.1987 0 4-1.8013 4-4v-52c0-2.1987-1.8013-4-4-4zm0 2h70c1.1253 0 2 0.8747 2 2v52c0 1.1253-0.8747 2-2 2h-70c-1.1253 0-2-0.8747-2-2v-52c0-1.1253 0.8747-2 2-2z" color="#000000" fill="#f37e40" style="-inkscape-stroke:none"/>
  <g fill="#fff">
   <path transform="matrix(1.6306 0 0 1.6325 1484.1 -4348.5)" d="m26.605 2.318v16.44l3.712-3.624 2.122 4.331c0.52 1.172 3.22 0.23 2.452-1.337l-2.099-4.496h4.685z" color="#000000" display="block" fill="#fff" stroke="#3584e4" stroke-miterlimit="10" stroke-width=".61292"/>
   <g transform="matrix(1.6306 0 0 1.6325 1484.1 -4348.5)">
    <path d="m26.605 2.318v16.44l3.712-3.624 2.122 4.331c0.52 1.172 3.22 0.23 2.452-1.337l-2.099-4.496h4.685z" color="#000000" display="block" style="-inkscape-stroke:none"/>
    <path d="m26.299 1.5566v17.93l3.9297-3.8359 1.9297 3.9395c4.13e-4 9.3e-4 0.0015 1e-3 2e-3 2e-3 0.17657 0.39503 0.55319 0.6177 0.93945 0.68164 0.38717 0.06409 0.7997-0.0053 1.1719-0.16992 0.37218-0.16463 0.70959-0.42796 0.9043-0.79688 0.19442-0.36836 0.21772-0.8468-0.0098-1.3125l-1.8926-4.0567h4.9238zm0.61328 1.5234 9.8457 10.246h-4.4473l2.3047 4.9336v0.0039c0.15543 0.31713 0.13132 0.54405 0.01953 0.75586s-0.33951 0.4032-0.61133 0.52344-0.58289 0.16494-0.82422 0.125c-0.24133-0.03995-0.39651-0.1389-0.48047-0.32812l-2e-3 -0.0039-2.3105-4.7168-3.4941 3.4102z" color="#000000" display="block" fill="#f37e40" style="-inkscape-stroke:none"/>
   </g>
  </g>
 </g>
 <path d="m24.708 6.0855-0.79002 0.79002-0.79002-0.79002-0.37418 0.37418 0.79002 0.79002-0.79002 0.79002 0.37418 0.37418 0.79002-0.79002 0.79002 0.79002 0.37418-0.37418-0.79002-0.79002 0.79002-0.79002z" fill="#f37e40"/>
</svg>
