<svg width="160" height="94" version="1.1" viewBox="0 0 42.333 24.871" xmlns="http://www.w3.org/2000/svg">
 <defs>
  <clipPath id="a">
   <path d="m316-4731h162v95h-162z" fill="#3584e4" style="paint-order:normal"/>
  </clipPath>
 </defs>
 <path transform="matrix(.26459 0 0 .26459 -.00030851 0)" d="m0 0v94h160v-94h-160z" fill="#f37e40"/>
 <path d="m2.6455 1.5875h39.159v22.754h-39.159z" fill="#fff" stroke-width=".39837"/>
 <g transform="matrix(.26458 0 0 .26458 -83.608 1251.7)" clip-path="url(#a)" fill="#f37e40" stroke-width=".99998">
  <path transform="translate(316 -4731.1)" d="m76.756 0c1.6e-5 0.020309 0.001953 0.040234 0.001953 0.060547 0 42.41-34.348 76.759-76.758 76.76v3c44.031-0.001062 79.758-35.728 79.758-79.76 0-0.020306-0.001937-0.040244-0.001953-0.060547h-3z" color="#000000" opacity=".249" style="-inkscape-stroke:none"/>
  <path transform="translate(316 -4731.1)" d="m46.488 0c2.6e-5 0.0203 0.001953 0.040241 0.001953 0.060547 0 25.693-20.797 46.489-46.49 46.49v3c27.314-0.001059 49.49-22.176 49.49-49.49 0-0.020311-0.001928-0.040241-0.001953-0.060547h-3z" color="#000000" opacity=".474" style="-inkscape-stroke:none"/>
  <path transform="translate(316 -4731.1)" d="m25.357 0c4.7e-5 0.0202 0 0.040335 0 0.060547 0 14.022-11.335 25.358-25.357 25.359v3c15.643-0.001059 28.357-12.716 28.357-28.359 0-0.020257 4.2e-5 -0.0403 0-0.060547h-3z" color="#000000" opacity=".705" style="-inkscape-stroke:none"/>
  <path transform="translate(316 -4731.1)" d="m15.064 0c8e-5 0.020281 0.001953 0.040246 0.001953 0.060547 0 8.3388-6.7279 15.067-15.066 15.068v3c9.9598-0.001066 18.066-8.1083 18.066-18.068 0-0.020317-0.001885-0.040246-0.001953-0.060547h-3z" color="#000000" style="-inkscape-stroke:none"/>
 </g>
 <g stroke-dashoffset=".95" stroke-linecap="square" stroke-linejoin="round">
  <path d="m12.012 9.0242-1.3417-1.3793 2.1219-2.1243-7.8809-0.60683 0.60613 7.8901 2.1219-2.1243 3.2883 3.2925" color="#000000" fill="#fff" stroke-width=".26288" style="-inkscape-stroke:none"/>
  <path d="m4.9219 4.7832a0.13146 0.13146 0 0 0-0.14062 0.14062l0.60547 7.8906a0.13146 0.13146 0 0 0 0.22461 0.08203l2.0293-2.0312 3.1934 3.1992 0.09375 0.09375 0.18555-0.18555-0.0918-0.09375-3.2891-3.293a0.13146 0.13146 0 0 0-0.18555 0l-1.9199 1.9219-0.57227-7.4512 7.4414 0.57422-1.918 1.9219a0.13146 0.13146 0 0 0-2e-3 0.18359l1.3418 1.3789 0.0918 0.095703 0.1875-0.18359-0.08984-0.095703-1.252-1.2852 2.0293-2.0332a0.13146 0.13146 0 0 0-0.08203-0.22461z" color="#000000" fill="#f37e40" style="-inkscape-stroke:none"/>
 </g>
 <g stroke-dasharray="0.525771, 0.262885" stroke-miterlimit="10">
  <path d="m14.466 10.38v7.0554l1.5912-1.5553 0.90962 1.8587c0.2229 0.50255 1.3803 0.09871 1.0511-0.57379l-0.89976-1.9299h2.0083z" color="#000000" display="block" fill="#fff" stroke-width=".26288" style="-inkscape-stroke:none"/>
  <path d="m14.561 10.289-0.0957 0.0918h-0.13086v0.52539h0.26367v-0.25391l0.16211-0.15625zm0.38086 0.39648-0.18945 0.18164 0.36328 0.37891 0.19141-0.18164zm-0.60742 0.48242v0.52734h0.26367v-0.52734zm1.1543 0.08594-0.18945 0.18164 0.36328 0.38086 0.18945-0.18359zm0.54492 0.57031-0.18945 0.18164 0.36523 0.37891 0.18945-0.18164zm-1.6992 0.13281v0.52539h0.26367v-0.52539zm2.2461 0.43555-0.18945 0.18164 0.36328 0.37891 0.18945-0.18164zm-2.2461 0.35352v0.52539h0.26367v-0.52539zm2.793 0.21484-0.18945 0.18164 0.36328 0.38086 0.18945-0.18359zm0.54492 0.57031-0.18945 0.18164 0.36523 0.37891 0.18945-0.18164zm-3.3379 0.0039v0.52539h0.26367v-0.52539zm3.8848 0.56445-0.18945 0.18164 0.36328 0.37891 0.18945-0.18164zm-3.8848 0.22461v0.52539h0.26367v-0.52539zm4.4316 0.34375-0.19141 0.18164 0.24414 0.25391h-0.3457v0.26367h0.52539v-0.19336l0.13086-0.12695zm-1.8535 0.43555 0.18164 0.39062 0.23828-0.11133-0.0078-0.01563h0.0957v-0.26367zm0.77148 0v0.26367h0.52539v-0.26367zm-3.3496 0.0078v0.52734h0.26367v-0.52734zm3.1094 0.50977-0.23828 0.11133 0.22266 0.47656 0.23828-0.11133zm-1.5352 0.2207-0.375 0.36719 0.18359 0.1875 0.375-0.36719zm-1.5742 0.05859v0.52539h0.26367v-0.52539zm1.9219 0.08594-0.23633 0.11719 0.23242 0.4707 0.23633-0.11524zm1.5215 0.34961-0.23828 0.11133 0.2207 0.47656 0.23828-0.11133zm-2.4316 0.05664-0.37695 0.36719 0.18359 0.18945 0.37695-0.36914zm-1.0117 0.29688v0.52539h0.16992l-0.09961 0.09766 0.18359 0.1875 0.37695-0.36719-0.18359-0.18945-0.18359 0.17969v-0.43359zm2.2695 0.0059-0.23633 0.11524 0.23047 0.47266 0.23633-0.11523zm1.5059 0.35547-0.23828 0.11133 0.02734 0.05664 0.02344 0.05273 0.01367 0.04687 0.0078 0.04297 2e-3 0.04102-0.0039 0.03906-0.0059 0.03711-0.01172 0.03516-0.01758 0.03906 0.23828 0.10938 0.02344-0.05273 0.02148-0.06641 0.01367-0.06836 0.0059-0.07031-0.0039-0.07227-0.01367-0.07422-0.02344-0.07617-0.0293-0.07031zm-1.1602 0.35352-0.23633 0.11523 0.13672 0.2793 0.0293 0.05469 0.03906 0.05469 0.04687 0.04687 0.05078 0.03906 0.02734 0.01758 0.13476-0.22656-0.01367-0.0078-0.02344-0.01758-0.02148-0.02148-0.01758-0.02539-0.01758-0.0332zm0.82226 0.29688-0.0039 2e-3 -0.03711 0.02539-0.04102 0.02344-0.04297 0.01953-0.04492 0.01953-0.04492 0.01367-0.04492 0.01172-0.04687 0.0098-0.04492 0.0039-0.04492 2e-3h-0.0098l-0.0098 0.26172 0.02148 2e-3 0.0625-2e-3 0.06445-0.0078 0.06445-0.01172 0.0625-0.01563 0.06055-0.02148 0.0625-0.02344 0.05859-0.0293 0.05664-0.0332 0.05469-0.03516 0.0098-0.0098z" color="#000000" display="block" fill="#f37e40" style="-inkscape-stroke:none"/>
 </g>
 <path d="m0.95209 1.5875c-0.23453 0-0.42323 0.1887-0.42323 0.42323v0.74104c0 0.23453 0.1887 0.42323 0.42323 0.42323h0.74105c0.23453 0 0.42323-0.1887 0.42323-0.42323v-0.74104c0-0.23453-0.1887-0.42323-0.42323-0.42323zm0 2.1167c-0.23453 0-0.42323 0.1887-0.42323 0.42323v0.74104c0 0.23453 0.1887 0.42323 0.42323 0.42323h0.74105c0.23453 0 0.42323-0.1887 0.42323-0.42323v-0.74104c0-0.23453-0.1887-0.42323-0.42323-0.42323zm0 2.1167c-0.23453 0-0.42323 0.1887-0.42323 0.42323v0.74104c0 0.23453 0.1887 0.42323 0.42323 0.42323h0.74105c0.23453 0 0.42323-0.1887 0.42323-0.42323v-0.74104c0-0.23453-0.1887-0.42323-0.42323-0.42323zm0 2.1167c-0.23453 0-0.42323 0.1887-0.42323 0.42323v0.74105c0 0.23453 0.1887 0.42323 0.42323 0.42323h0.74105c0.23453 0 0.42323-0.1887 0.42323-0.42323v-0.74105c0-0.23453-0.1887-0.42323-0.42323-0.42323zm0 14.023c-0.23453 0-0.42323 0.1887-0.42323 0.42323v0.74105c0 0.23453 0.1887 0.42323 0.42323 0.42323h0.74105c0.23453 0 0.42323-0.1887 0.42323-0.42323v-0.74105c0-0.23453-0.1887-0.42323-0.42323-0.42323z" fill="#fff" stroke-width=".099377"/>
</svg>
