<?xml version="1.0" encoding="UTF-8" standalone="no"?>
<svg
   width="326"
   height="94"
   viewBox="0 0 86.254506 24.871"
   version="1.1"
   id="svg29"
   sodipodi:docname="workspaces-span-displays.svg"
   inkscape:version="1.1.1 (3bf5ae0d25, 2021-09-20)"
   xmlns:inkscape="http://www.inkscape.org/namespaces/inkscape"
   xmlns:sodipodi="http://sodipodi.sourceforge.net/DTD/sodipodi-0.dtd"
   xmlns="http://www.w3.org/2000/svg"
   xmlns:svg="http://www.w3.org/2000/svg"
   xmlns:rdf="http://www.w3.org/1999/02/22-rdf-syntax-ns#"
   xmlns:cc="http://creativecommons.org/ns#"
   xmlns:dc="http://purl.org/dc/elements/1.1/">
  <metadata
     id="metadata18">
    <rdf:RDF>
      <cc:Work
         rdf:about="">
        <dc:format>image/svg+xml</dc:format>
        <dc:type
           rdf:resource="http://purl.org/dc/dcmitype/StillImage" />
      </cc:Work>
    </rdf:RDF>
  </metadata>
  <sodipodi:namedview
     id="namedview31"
     pagecolor="#ffffff"
     bordercolor="#cccccc"
     borderopacity="1"
     inkscape:pageshadow="0"
     inkscape:pageopacity="0"
     inkscape:pagecheckerboard="0"
     showgrid="true"
     inkscape:zoom="2.8284271"
     inkscape:cx="264.10439"
     inkscape:cy="50.381359"
     inkscape:window-width="1366"
     inkscape:window-height="704"
     inkscape:window-x="0"
     inkscape:window-y="27"
     inkscape:window-maximized="1"
     inkscape:current-layer="svg29"
     width="326px">
    <inkscape:grid
       type="xygrid"
       id="grid65" />
  </sodipodi:namedview>
  <defs
     id="defs5">
    <clipPath
       clipPathUnits="userSpaceOnUse"
       id="a">
      <path
         style="opacity:1;vector-effect:none;fill:#ed333b;fill-opacity:1;stroke:none;stroke-width:2;stroke-linecap:butt;stroke-linejoin:miter;stroke-miterlimit:4;stroke-dasharray:none;stroke-dashoffset:0;stroke-opacity:1;marker:none"
         d="m 1448,-3870.014 h 127 v 73 h -127 z"
         id="path2" />
    </clipPath>
  </defs>
  <g
     transform="matrix(0.69227248,-0.69226845,0.69227248,0.69226845,-169.35882,-167.97379)"
     id="g4632"
     style="fill:#ffffff;stroke-width:0.28984" />
  <path
     d="M -1.1934043e-4,0 V 24.871989 H 2.6457807 42.334281 V 0 H 2.6457807 Z M 0.95229866,1.58754 H 1.6933627 c 0.234535,0 0.423238,0.1887056 0.423238,0.4232382 v 0.7410636 c 0,0.2345353 -0.188706,0.4232382 -0.423238,0.4232382 H 0.95229866 c -0.234535,0 -0.423238,-0.1887056 -0.423238,-0.4232382 V 2.0107782 c 0,-0.2345353 0.188706,-0.4232382 0.423238,-0.4232382 z m 1.69348204,0 H 41.805101 V 24.34175 H 2.6457807 Z M 0.95229866,3.70426 H 1.6933627 c 0.234535,0 0.423238,0.1887056 0.423238,0.4232382 v 0.7410636 c 0,0.2345353 -0.188706,0.4232382 -0.423238,0.4232382 H 0.95229866 c -0.234535,0 -0.423238,-0.1887056 -0.423238,-0.4232382 V 4.1274982 c 0,-0.2345353 0.188706,-0.4232382 0.423238,-0.4232382 z m 0,2.11672 H 1.6933627 c 0.234535,0 0.423238,0.1887056 0.423238,0.4232382 v 0.7410636 c 0,0.2345353 -0.188706,0.4232382 -0.423238,0.4232382 H 0.95229866 c -0.234535,0 -0.423238,-0.1887056 -0.423238,-0.4232382 V 6.2442182 c 0,-0.2345353 0.188706,-0.4232382 0.423238,-0.4232382 z m 0,2.11672 H 1.6933627 c 0.234535,0 0.423238,0.1887056 0.423238,0.4232382 v 0.7410632 c 0,0.234536 -0.188706,0.423239 -0.423238,0.423239 H 0.95229866 c -0.234535,0 -0.423238,-0.188706 -0.423238,-0.423239 V 8.3609382 c 0,-0.2345353 0.188706,-0.4232382 0.423238,-0.4232382 z m 0,14.02327 H 1.6933627 c 0.234535,0 0.423238,0.188705 0.423238,0.423238 v 0.741063 c 0,0.234536 -0.188706,0.423239 -0.423238,0.423239 H 0.95229866 c -0.234535,0 -0.423238,-0.188706 -0.423238,-0.423239 v -0.741063 c 0,-0.234535 0.188706,-0.423238 0.423238,-0.423238 z"
     fill="#f37e40"
     id="path2-3"
     style="stroke-width:0.26459" />
  <path
     id="path4"
     style="opacity:0.28;fill:#f37e40;fill-opacity:1;stroke-width:0.374187"
     d="M 2.6457317,1.5875107 V 3.9687766 23.812659 24.34183 H 41.804328 V 23.812659 20.693966 4.8188598 3.9687766 1.5875107 Z M 33.741716,3.7041915 h 6.614628 c 0.370409,0 0.668699,0.2950127 0.668699,0.6614628 V 8.334431 c 0,0.3664504 -0.29829,0.6614624 -0.668699,0.6614624 h -6.614628 c -0.370406,0 -0.668696,-0.295012 -0.668696,-0.6614624 V 4.3656543 c 0,-0.3664501 0.29829,-0.6614628 0.668696,-0.6614628 z m 0.153999,6.8792125 h 6.335573 c 0.301074,0 0.54364,0.23601 0.54364,0.52917 v 3.704192 c 0,0.293161 -0.242566,0.52917 -0.54364,0.52917 h -6.335573 c -0.301127,0 -0.54364,-0.236009 -0.54364,-0.52917 v -3.704192 c 0,-0.29316 0.242513,-0.52917 0.54364,-0.52917 z m 0,6.614628 h 6.335573 c 0.301074,0 0.54364,0.23601 0.54364,0.52917 v 3.704192 c 0,0.29316 -0.242566,0.52917 -0.54364,0.52917 h -6.335573 c -0.301079,0 -0.54364,-0.23601 -0.54364,-0.52917 v -3.704192 c 0,-0.29316 0.242561,-0.52917 0.54364,-0.52917 z" />
  <path
     style="fill:#f37e40;fill-opacity:1;stroke:#ed333b;stroke-width:0;stroke-linecap:round;stroke-miterlimit:4;stroke-dasharray:none"
     d="m 33.741718,3.704192 c -0.370407,0 -0.668698,0.2950126 -0.668698,0.6614628 v 3.9687766 c 0,0.36645 0.298291,0.661463 0.668698,0.661463 h 6.614629 c 0.370406,0 0.668696,-0.295013 0.668696,-0.661463 V 4.3656548 c 0,-0.3664502 -0.29829,-0.6614628 -0.668696,-0.6614628 z m 0.153997,0.2645851 h 6.335573 c 0.301074,0 0.54364,0.2360099 0.54364,0.5291702 v 3.7041915 c 0,0.2931604 -0.242566,0.5291706 -0.54364,0.5291706 h -6.335573 c -0.301075,0 -0.54364,-0.2360102 -0.54364,-0.5291706 V 4.4979473 c 0,-0.2931603 0.242565,-0.5291702 0.54364,-0.5291702 z"
     id="rect3775-3"
     inkscape:connector-curvature="0" />
  <path
     d="M 43.921802,0 V 24.870926 H 86.253677 V 0 Z m 0.527338,0.529298 h 41.274877 v 23.81293 H 44.44914 Z"
     color="#000000"
     style="stroke-width:0.999997;-inkscape-stroke:none;fill:#f37e40;fill-opacity:1"
     id="path2-5" />
  <path
     id="path4-3"
     style="paint-order:normal;fill:#f37e40;fill-opacity:1;opacity:0.287"
     d="M 167.5 1.5 L 167.5 92.5 L 324.5 92.5 L 324.5 1.5 L 167.5 1.5 z M 292.52734 14 L 317.52734 14 C 318.9273 14 320.05469 15.115001 320.05469 16.5 L 320.05469 31.5 C 320.05469 32.884999 318.9273 34 317.52734 34 L 292.52734 34 C 291.12739 34 290 32.884999 290 31.5 L 290 16.5 C 290 15.115001 291.12739 14 292.52734 14 z M 293.10938 40 L 317.05469 40 C 318.1926 40 319.10938 40.892001 319.10938 42 L 319.10938 56 C 319.10936 57.108003 318.1926 58 317.05469 58 L 293.10938 58 C 291.97127 58 291.05469 57.108003 291.05469 56 L 291.05469 42 C 291.05469 40.892001 291.97127 40 293.10938 40 z M 293.10938 65 L 317.05469 65 C 318.1926 65 319.10938 65.892001 319.10938 67 L 319.10938 81 C 319.10936 82.107999 318.1926 83 317.05469 83 L 293.10938 83 C 291.97145 83 291.05469 82.107999 291.05469 81 L 291.05469 67 C 291.05469 65.892001 291.97145 65 293.10938 65 z "
     transform="matrix(0.26458511,0,0,0.26458511,-1.1934043e-4,0)" />
  <path
     style="fill:#f37e40;fill-opacity:1;stroke:#ed333b;stroke-width:0;stroke-linecap:round;stroke-miterlimit:4;stroke-dasharray:none"
     d="m 77.39826,3.704192 c -0.370407,0 -0.668698,0.2950126 -0.668698,0.6614628 v 3.9687761 c 0,0.366451 0.298291,0.661463 0.668698,0.661463 h 6.614629 c 0.370407,0 0.668696,-0.295012 0.668696,-0.661463 V 4.3656548 c 0,-0.3664502 -0.298289,-0.6614628 -0.668696,-0.6614628 z m 0.153997,0.2645851 h 6.335574 c 0.301073,0 0.543639,0.2360099 0.543639,0.5291702 v 3.7041916 c 0,0.29316 -0.242566,0.52917 -0.543639,0.52917 h -6.335574 c -0.301075,0 -0.54364,-0.23601 -0.54364,-0.52917 V 4.4979473 c 0,-0.2931603 0.242565,-0.5291702 0.54364,-0.5291702 z"
     id="rect3775-3-7"
     inkscape:connector-curvature="0" />
</svg>
