<svg width="326" height="94" version="1.1" viewBox="0 0 86.255 24.871" xmlns="http://www.w3.org/2000/svg">
 <path d="m44.186 0.26459h41.804v24.342h-41.804z" color="#000000" fill="#fff" stroke-width=".52916" style="-inkscape-stroke:none"/>
 <path d="m43.922 0v24.871h42.332v-24.871zm0.52734 0.5293h41.275v23.813h-41.275z" color="#000000" fill="#f37e40" style="-inkscape-stroke:none"/>
 <path d="m44.582 0.66146h41.54v24.077h-41.54z" fill="#f37e40" opacity=".287" stroke="#f37e40" stroke-width=".79375" style="paint-order:normal"/>
 <path d="m49.742 2.6464h30.692c0.7329 0 1.3229 0.59002 1.3229 1.3229v16.933c0 0.7329-0.59002 1.3229-1.3229 1.3229h-30.692c-0.7329 0-1.3229-0.59002-1.3229-1.3229v-16.933c0-0.7329 0.59002-1.3229 1.3229-1.3229z" fill="#fff" stroke-width="0"/>
 <path d="m2.6457 1.5875h39.159v22.754h-39.159z" fill="#fff" stroke-width=".39837"/>
 <path d="m2.6457 1.5875h39.159v22.754h-39.159z" fill="#f37e40" opacity=".287" stroke-width=".39837"/>
 <path d="m0.52905 4.7625v15.346h3.4396c0.7329 0 1.3229-0.59002 1.3229-1.3229v-12.7c0-0.7329-0.59002-1.3229-1.3229-1.3229zm8.7313 0c-0.7329 0-1.3229 0.59002-1.3229 1.3229v12.7c0 0.7329 0.59002 1.3229 1.3229 1.3229h23.813c0.7329 0 1.3229-0.59002 1.3229-1.3229v-12.7c0-0.7329-0.59002-1.3229-1.3229-1.3229zm29.104 0c-0.7329 0-1.3229 0.59002-1.3229 1.3229v12.7c0 0.7329 0.59002 1.3229 1.3229 1.3229h3.4396v-15.346z" fill="#fff" stroke-width="0"/>
 <path transform="matrix(.26459 0 0 .26459 -.00011934 0)" d="m0 0v94h160v-94h-160zm10 6h148v86h-148v-86z" fill="#f37e40"/>
 <path d="m0.95228 1.5875c-0.23453 0-0.42323 0.1887-0.42323 0.42323v0.74104c0 0.23453 0.1887 0.42323 0.42323 0.42323h0.74105c0.23453 0 0.42323-0.1887 0.42323-0.42323v-0.74104c0-0.23453-0.1887-0.42323-0.42323-0.42323zm0 2.1167c-0.23453 0-0.42323 0.1887-0.42323 0.42323v0.74104c0 0.23453 0.1887 0.42323 0.42323 0.42323h0.74105c0.23453 0 0.42323-0.1887 0.42323-0.42323v-0.74104c0-0.23453-0.1887-0.42323-0.42323-0.42323zm0 2.1167c-0.23453 0-0.42323 0.1887-0.42323 0.42323v0.74104c0 0.23453 0.1887 0.42323 0.42323 0.42323h0.74105c0.23453 0 0.42323-0.1887 0.42323-0.42323v-0.74104c0-0.23453-0.1887-0.42323-0.42323-0.42323zm0 2.1167c-0.23453 0-0.42323 0.1887-0.42323 0.42323v0.74105c0 0.23453 0.1887 0.42323 0.42323 0.42323h0.74105c0.23453 0 0.42323-0.1887 0.42323-0.42323v-0.74105c0-0.23453-0.1887-0.42323-0.42323-0.42323zm0 14.023c-0.23453 0-0.42323 0.1887-0.42323 0.42323v0.74105c0 0.23453 0.1887 0.42323 0.42323 0.42323h0.74105c0.23453 0 0.42323-0.1887 0.42323-0.42323v-0.74105c0-0.23453-0.1887-0.42323-0.42323-0.42323z" fill="#fff" stroke-width=".099377"/>
</svg>
