<?xml version="1.0" encoding="UTF-8" standalone="no"?>
<svg
   xmlns:dc="http://purl.org/dc/elements/1.1/"
   xmlns:cc="http://creativecommons.org/ns#"
   xmlns:rdf="http://www.w3.org/1999/02/22-rdf-syntax-ns#"
   xmlns:svg="http://www.w3.org/2000/svg"
   xmlns="http://www.w3.org/2000/svg"
   xmlns:sodipodi="http://sodipodi.sourceforge.net/DTD/sodipodi-0.dtd"
   xmlns:inkscape="http://www.inkscape.org/namespaces/inkscape"
   width="326"
   height="94"
   viewBox="0 0 86.254506 24.871"
   version="1.1"
   id="svg29"
   sodipodi:docname="workspaces-span-displays.svg"
   inkscape:version="0.92.5 (2060ec1f9f, 2020-04-08)">
  <metadata
     id="metadata20">
    <rdf:RDF>
      <cc:Work
         rdf:about="">
        <dc:format>image/svg+xml</dc:format>
        <dc:type
           rdf:resource="http://purl.org/dc/dcmitype/StillImage" />
      </cc:Work>
    </rdf:RDF>
  </metadata>
  <sodipodi:namedview
     id="namedview31"
     pagecolor="#ffffff"
     bordercolor="#cccccc"
     borderopacity="1"
     inkscape:pageshadow="0"
     inkscape:pageopacity="1"
     inkscape:pagecheckerboard="0"
     showgrid="true"
     inkscape:zoom="4.0000001"
     inkscape:cx="238.95238"
     inkscape:cy="30.759144"
     inkscape:window-width="1366"
     inkscape:window-height="704"
     inkscape:window-x="0"
     inkscape:window-y="27"
     inkscape:window-maximized="1"
     inkscape:current-layer="svg29">
    <inkscape:grid
       type="xygrid"
       id="grid65" />
  </sodipodi:namedview>
  <defs
     id="defs5">
    <clipPath
       clipPathUnits="userSpaceOnUse"
       id="a">
      <path
         style="opacity:1;vector-effect:none;fill:#ed333b;fill-opacity:1;stroke:none;stroke-width:2;stroke-linecap:butt;stroke-linejoin:miter;stroke-miterlimit:4;stroke-dasharray:none;stroke-dashoffset:0;stroke-opacity:1;marker:none"
         d="m 1448,-3870.014 h 127 v 73 h -127 z"
         id="path2" />
    </clipPath>
  </defs>
  <rect
     y="0.26458511"
     x="44.185596"
     height="24.341841"
     width="41.804455"
     style="vector-effect:none;fill:#ffffff;fill-opacity:1;stroke:#924d8b;stroke-width:0.529162;stroke-linecap:butt;stroke-linejoin:miter;stroke-miterlimit:4;stroke-dasharray:none;stroke-dashoffset:0;stroke-opacity:1;marker:none"
     id="rect67" />
  <path
     style="display:inline;opacity:0.287;vector-effect:none;fill:#924d8b;fill-opacity:1;stroke:#924d8b;stroke-width:0.79375;stroke-linecap:butt;stroke-linejoin:miter;stroke-miterlimit:4;stroke-dasharray:none;stroke-dashoffset:0;stroke-opacity:1;marker:none;marker-start:none;marker-mid:none;marker-end:none;paint-order:normal"
     d="M 44.31789,0.3974596 H 85.857756 V 24.474709 H 44.31789 Z"
     id="path3092" />
  <g
     id="g4804"
     transform="translate(43.921149,-0.5285854)" />
  <rect
     style="fill:#924d8b;fill-opacity:1;stroke:none;stroke-width:0.286803;stroke-opacity:1"
     id="rect4752"
     width="42.333618"
     height="24.871"
     x="-0.00011934042"
     y="-3.5527137e-15"
     ry="0" />
  <rect
     style="fill:#ffffff;fill-opacity:1;stroke:none;stroke-width:0.398372;stroke-opacity:1"
     id="rect5232"
     width="39.158596"
     height="22.754318"
     x="2.6457317"
     y="1.5875072" />
  <rect
     style="opacity:0.287;fill:#924d8b;fill-opacity:1;stroke:none;stroke-width:0.398372;stroke-opacity:1"
     id="rect5232-3"
     width="39.158596"
     height="22.754318"
     x="2.6457317"
     y="1.5875072" />
  <rect
     style="fill:#924d8b;fill-opacity:1;stroke:none;stroke-width:0.263189;stroke-opacity:1"
     id="rect5358"
     width="2.6458511"
     height="24.871"
     x="-0.00011934042"
     y="-3.5527137e-15" />
  <path
     id="rect2863-36-3"
     style="fill:#ffffff;fill-opacity:1;stroke-width:0.0993768"
     d="m 0.95228388,1.5875106 c -0.23452801,0 -0.42323301,0.188705 -0.42323301,0.423233 v 0.741045 c 0,0.234529 0.188705,0.423233 0.42323301,0.423233 H 1.6933289 c 0.234528,0 0.423233,-0.188704 0.423233,-0.423233 v -0.741045 c 0,-0.234528 -0.188705,-0.423233 -0.423233,-0.423233 z m 0,2.116681 c -0.23452801,0 -0.42323301,0.188705 -0.42323301,0.423233 v 0.741045 c 0,0.234528 0.188705,0.423233 0.42323301,0.423233 H 1.6933289 c 0.234528,0 0.423233,-0.188705 0.423233,-0.423233 v -0.741045 c 0,-0.234528 -0.188705,-0.423233 -0.423233,-0.423233 z m 0,2.116681 c -0.23452801,0 -0.42323301,0.188704 -0.42323301,0.423233 v 0.7410448 c 0,0.2345282 0.188705,0.4232327 0.42323301,0.4232327 H 1.6933289 c 0.234528,0 0.423233,-0.1887045 0.423233,-0.4232327 V 6.2441056 c 0,-0.234529 -0.188705,-0.423233 -0.423233,-0.423233 z m 0,2.1166807 c -0.23452801,0 -0.42323301,0.1887045 -0.42323301,0.4232326 v 0.7410452 c 0,0.2345291 0.188705,0.4232322 0.42323301,0.4232322 H 1.6933289 c 0.234528,0 0.423233,-0.1887031 0.423233,-0.4232322 V 8.3607859 c 0,-0.2345281 -0.188705,-0.4232326 -0.423233,-0.4232326 z m 0,14.0230107 c -0.23452801,0 -0.42323301,0.188704 -0.42323301,0.423232 v 0.741046 c 0,0.234528 0.188705,0.423232 0.42323301,0.423232 H 1.6933289 c 0.234528,0 0.423233,-0.188704 0.423233,-0.423232 v -0.741046 c 0,-0.234528 -0.188705,-0.423232 -0.423233,-0.423232 z"
     sodipodi:nodetypes="sssssssssssssssssssssssssssssssssssssssssssss" />
  <rect
     style="opacity:1;fill:#ffffff;fill-opacity:1;stroke:#ed333b;stroke-width:0;stroke-linecap:round;stroke-miterlimit:4;stroke-dasharray:none"
     id="rect3775"
     width="7.9518409"
     height="5.2917018"
     x="33.073021"
     y="3.7041917"
     rx="0.66860515"
     ry="0.66146213" />
  <path
     style="opacity:1;fill:#924d8b;fill-opacity:1;stroke:#ed333b;stroke-width:0;stroke-linecap:round;stroke-miterlimit:4;stroke-dasharray:none"
     d="m 33.741717,3.7041906 c -0.370407,0 -0.668698,0.2950126 -0.668698,0.6614628 V 8.33443 c 0,0.3664501 0.298291,0.6614628 0.668698,0.6614628 h 6.614629 c 0.370406,0 0.668696,-0.2950127 0.668696,-0.6614628 V 4.3656534 c 0,-0.3664502 -0.29829,-0.6614628 -0.668696,-0.6614628 z m 0.153997,0.2645851 h 6.335573 c 0.301074,0 0.54364,0.2360099 0.54364,0.5291702 v 3.7041915 c 0,0.2931603 -0.242566,0.5291703 -0.54364,0.5291703 h -6.335573 c -0.301075,0 -0.54364,-0.23601 -0.54364,-0.5291703 V 4.4979459 c 0,-0.2931603 0.242565,-0.5291702 0.54364,-0.5291702 z"
     id="rect3775-3"
     inkscape:connector-curvature="0" />
  <path
     inkscape:connector-curvature="0"
     style="opacity:1;fill:#ffffff;fill-opacity:1;stroke:#ed333b;stroke-width:0;stroke-linecap:round;stroke-miterlimit:4;stroke-dasharray:none"
     d="m 33.895715,17.198031 c -0.301077,0 -0.543641,0.236011 -0.543641,0.529171 v 3.704191 c 0,0.29316 0.242564,0.52917 0.543641,0.52917 h 6.335572 c 0.301074,0 0.543641,-0.23601 0.543641,-0.52917 v -3.704191 c 0,-0.29316 -0.242567,-0.529171 -0.543641,-0.529171 z"
     id="rect3775-7-5" />
  <path
     inkscape:connector-curvature="0"
     id="rect3775-7"
     style="opacity:1;fill:#ffffff;fill-opacity:1;stroke:#ed333b;stroke-width:0;stroke-linecap:round;stroke-miterlimit:4;stroke-dasharray:none"
     d="m 33.895715,10.583404 c -0.301124,0 -0.543641,0.23601 -0.543641,0.52917 v 3.704192 c 0,0.293161 0.242517,0.52917 0.543641,0.52917 h 6.335572 c 0.301074,0 0.543641,-0.236009 0.543641,-0.52917 v -3.704192 c 0,-0.29316 -0.242567,-0.52917 -0.543641,-0.52917 z" />
  <rect
     style="opacity:1;fill:#ffffff;fill-opacity:1;stroke:#ed333b;stroke-width:0;stroke-linecap:round;stroke-miterlimit:4;stroke-dasharray:none"
     id="rect3775-36"
     width="7.9518409"
     height="5.2917018"
     x="76.729561"
     y="3.7041917"
     rx="0.66860515"
     ry="0.66146213" />
  <path
     style="opacity:1;fill:#924d8b;fill-opacity:1;stroke:#ed333b;stroke-width:0;stroke-linecap:round;stroke-miterlimit:4;stroke-dasharray:none"
     d="m 77.39826,3.7041904 c -0.370407,0 -0.668698,0.2950126 -0.668698,0.6614628 v 3.9687761 c 0,0.366451 0.298291,0.661463 0.668698,0.661463 h 6.614629 c 0.370407,0 0.668696,-0.295012 0.668696,-0.661463 V 4.3656532 c 0,-0.3664502 -0.298289,-0.6614628 -0.668696,-0.6614628 z m 0.153997,0.2645851 h 6.335574 c 0.301073,0 0.543639,0.2360099 0.543639,0.5291702 v 3.7041916 c 0,0.29316 -0.242566,0.52917 -0.543639,0.52917 h -6.335574 c -0.301075,0 -0.54364,-0.23601 -0.54364,-0.52917 V 4.4979457 c 0,-0.2931603 0.242565,-0.5291702 0.54364,-0.5291702 z"
     id="rect3775-3-7"
     inkscape:connector-curvature="0" />
  <path
     inkscape:connector-curvature="0"
     style="opacity:1;fill:#ffffff;fill-opacity:1;stroke:#ed333b;stroke-width:0;stroke-linecap:round;stroke-miterlimit:4;stroke-dasharray:none"
     d="m 77.552258,17.198031 c -0.301076,0 -0.54364,0.236011 -0.54364,0.529171 v 3.704191 c 0,0.29316 0.242564,0.52917 0.54364,0.52917 h 6.335573 c 0.301074,0 0.54364,-0.23601 0.54364,-0.52917 v -3.704191 c 0,-0.29316 -0.242566,-0.529171 -0.54364,-0.529171 z"
     id="rect3775-7-5-5" />
  <path
     inkscape:connector-curvature="0"
     id="rect3775-7-3"
     style="opacity:1;fill:#ffffff;fill-opacity:1;stroke:#ed333b;stroke-width:0;stroke-linecap:round;stroke-miterlimit:4;stroke-dasharray:none"
     d="m 77.552258,10.583403 c -0.301124,0 -0.54364,0.236011 -0.54364,0.529171 v 3.704192 c 0,0.293161 0.242516,0.52917 0.54364,0.52917 h 6.335573 c 0.301074,0 0.54364,-0.236009 0.54364,-0.52917 v -3.704192 c 0,-0.29316 -0.242566,-0.529171 -0.54364,-0.529171 z" />
</svg>
