<?xml version="1.0" encoding="UTF-8" standalone="no"?>
<svg
   version="1.1"
   viewBox="0 0 16 16"
   id="svg12"
   sodipodi:docname="preferences-ubuntu-desktop-panel-symbolic.svg"
   inkscape:version="1.1 (c68e22c387, 2021-05-23)"
   xmlns:inkscape="http://www.inkscape.org/namespaces/inkscape"
   xmlns:sodipodi="http://sodipodi.sourceforge.net/DTD/sodipodi-0.dtd"
   xmlns="http://www.w3.org/2000/svg"
   xmlns:svg="http://www.w3.org/2000/svg">
  <defs
     id="defs16" />
  <sodipodi:namedview
     id="namedview14"
     pagecolor="#ffffff"
     bordercolor="#666666"
     borderopacity="1.0"
     inkscape:pageshadow="2"
     inkscape:pageopacity="0.0"
     inkscape:pagecheckerboard="0"
     showgrid="true"
     inkscape:zoom="11.75565"
     inkscape:cx="16.502703"
     inkscape:cy="7.1029675"
     inkscape:window-width="1366"
     inkscape:window-height="704"
     inkscape:window-x="0"
     inkscape:window-y="27"
     inkscape:window-maximized="1"
     inkscape:current-layer="svg12">
    <inkscape:grid
       type="xygrid"
       id="grid18" />
  </sodipodi:namedview>
  <g
     transform="translate(-552,-300)"
     fill="#808080"
     id="g6">
    <path
       d="m 556.5,300 c -1.939,0 -3.5,1.5331 -3.5,3.4375 v 0.125 c 0,1.9044 1.561,3.4375 3.5,3.4375 h 7 c 1.939,0 3.5,-1.5331 3.5,-3.4375 v -0.125 C 567,301.5331 565.439,300 563.5,300 Z m 6.873,1.0039 a 2.5,2.5 0 0 1 2.623,2.3672 v 0.002 a 2.5,2.5 0 0 1 -2.3691,2.623 2.5,2.5 0 0 1 -2.623,-2.3691 2.5,2.5 0 0 1 2.3691,-2.623 z"
       id="path2" />
    <path
       d="m 556.5,309 c -1.939,0 -3.5,1.561 -3.5,3.5 0,1.939 1.561,3.5 3.5,3.5 h 7 c 1.939,0 3.5,-1.561 3.5,-3.5 0,-1.939 -1.561,-3.5 -3.5,-3.5 z m -0.12695,1.0039 a 2.5,2.5 0 0 1 2.623,2.3672 v 0.002 a 2.5,2.5 0 0 1 -2.3691,2.623 2.5,2.5 0 0 1 -2.623,-2.3691 2.5,2.5 0 0 1 2.3691,-2.623 z"
       id="path4" />
  </g>
</svg>
